<svg width="90" height="60" viewBox="0 0 90 60" fill="none" xmlns="http://www.w3.org/2000/svg">
<path fill-rule="evenodd" clip-rule="evenodd" d="M0.560242 59.7334H5.45256C6.99419 59.7334 8.28816 59.1952 9.33237 58.1187C10.3676 57.0522 10.8854 55.6845 10.8854 54.0156C10.8854 53.2058 10.7309 52.4256 10.4223 51.6727C10.1135 50.932 9.67527 50.2951 9.1122 49.7617C8.44925 49.1026 7.68205 48.6532 6.81252 48.4138C6.16776 48.2385 5.29143 48.1495 4.18578 48.1495H0.560242V59.7334ZM5.99308 50.0308C6.59455 50.3567 7.03494 50.9147 7.31654 51.7048C7.55271 52.3565 7.6707 53.112 7.6707 53.9688C7.6707 54.8204 7.55712 55.5609 7.33 56.1932C7.03954 56.9954 6.59455 57.5533 5.99308 57.8695C5.74097 57.9954 5.4821 58.0793 5.21879 58.1187C4.94647 58.1681 4.64212 58.1929 4.30847 58.1929C4.17913 58.1929 4.0564 58.1929 3.93842 58.1929C3.81349 58.1929 3.68411 58.1878 3.55697 58.1805V49.7198C4.25623 49.7198 4.74886 49.7296 5.03037 49.7493C5.31183 49.7691 5.63198 49.863 5.99308 50.0308ZM11.7434 59.7334H14.7401V48.1495H11.7434V59.7334ZM21.0333 59.7334L17.3419 52.3985L19.6439 48.1495H18.0774L14.8628 54.0156L17.7505 59.7334H21.0333ZM28.2276 53.112H25.0538V48.1495H22.0549V59.7334H25.0538V54.6822H28.2276V59.7334H31.2243V48.1495H28.2276V53.112ZM47.8287 57.9138V54.591H44.9548V57.8224C44.6823 58.0373 44.3916 58.2002 44.0829 58.3088C43.7764 58.4298 43.4563 58.4891 43.1294 58.4891C42.8025 58.4891 42.4665 58.415 42.1214 58.2669C41.3586 57.9409 40.7957 57.2695 40.4324 56.2524C40.1509 55.4598 40.0102 54.5192 40.0102 53.4232C40.0102 52.4256 40.2054 51.5616 40.5959 50.8307C41.0681 49.9518 41.74 49.4631 42.614 49.3667C42.7753 49.3445 42.8979 49.3346 42.9795 49.3346C43.5994 49.3346 44.1441 49.5568 44.6164 50.0037C44.9887 50.3469 45.3474 50.8802 45.6902 51.6011L47.0933 50.5197C46.5302 49.6308 45.9036 48.9742 45.2135 48.5495C44.5256 48.1347 43.7265 47.9274 42.8161 47.9274C42.5618 47.9274 42.2984 47.9423 42.0284 47.9719C40.5572 47.9719 39.3245 48.5645 38.3324 49.7493C37.3449 50.9369 36.85 52.3589 36.85 54.0179C36.85 55.8054 37.4221 57.2621 38.5663 58.3879C39.6651 59.4618 41.0408 60 42.6935 60C43.6562 60 44.5779 59.8223 45.461 59.4691C46.3327 59.1137 47.1205 58.5952 47.8287 57.9138ZM48.8073 59.7334H51.7199V49.5865C52.6848 49.5865 53.325 49.6458 53.6429 49.7643C54.2786 50.0014 54.6418 50.5395 54.7326 51.3813C54.7416 51.4381 54.7461 51.4974 54.7461 51.5566C54.7461 51.6159 54.7461 51.6751 54.7461 51.7344C54.7461 52.1097 54.6917 52.4428 54.5805 52.7268C54.4715 53.0133 54.2854 53.265 54.0243 53.4824C53.8608 53.6207 53.6656 53.7144 53.4386 53.7637C53.2115 53.823 52.9596 53.8549 52.6871 53.8549C52.5622 53.8549 52.4351 53.8549 52.308 53.8549C52.1808 53.8549 52.0537 53.8504 51.9265 53.8403L54.4874 59.7334H57.8519L55.2616 54.7242C56.0447 54.5069 56.635 54.1884 57.0346 53.7637C57.4977 53.2676 57.7293 52.6059 57.7293 51.7763C57.7293 50.5247 57.2797 49.5816 56.3785 48.9496C55.6248 48.4162 54.6509 48.1495 53.4522 48.1495H48.8073V59.7334ZM64.2698 47.9274C62.4968 47.9274 61.0893 48.5545 60.0449 49.8086C59.1095 50.9345 58.6419 52.317 58.6419 53.9564C58.6419 55.5957 59.1095 56.9782 60.0449 58.1039C61.0893 59.368 62.4968 60 64.2698 60C66.0497 60 67.4572 59.3778 68.4924 58.1336C69.4256 57.0077 69.8932 55.6202 69.8932 53.971C69.8932 52.3317 69.43 50.9492 68.5061 49.8235C67.4709 48.5596 66.0588 47.9274 64.2698 47.9274ZM62.1563 51.3344C62.3469 50.7296 62.6421 50.253 63.0416 49.8976C63.4412 49.5445 63.8771 49.3667 64.3493 49.3667C64.7034 49.3667 65.0348 49.4754 65.3436 49.6926C65.6456 49.9075 65.9044 50.2433 66.1223 50.6975C66.3311 51.1517 66.4833 51.6431 66.5832 52.1664C66.683 52.6873 66.7331 53.2552 66.7331 53.8675C66.7331 54.2131 66.7287 54.4846 66.7194 54.6822C66.7034 54.8796 66.6649 55.1807 66.6104 55.5856C66.4924 56.3461 66.2155 57.0225 65.7796 57.6151C65.2983 58.2669 64.7717 58.5928 64.1994 58.5928C63.9906 58.5928 63.7772 58.5384 63.5614 58.4298C63.3322 58.3311 63.1142 58.1731 62.9054 57.9559C62.5331 57.6003 62.2607 57.0719 62.0882 56.3708C61.9065 55.6696 61.8157 54.8845 61.8157 54.0179C61.8157 52.9195 61.9291 52.0256 62.1563 51.3344ZM70.8172 48.1495V55.5265C70.8172 56.2473 70.8763 56.835 70.9964 57.2918C71.1486 57.8842 71.4165 58.3879 71.7979 58.8027C72.2179 59.2076 72.7128 59.5087 73.2849 59.7062C73.8548 59.9013 74.4449 60 75.0535 60C77.8231 60 79.208 58.5088 79.208 55.5265V48.1495H77.6823V55.0352C77.6823 56.2894 77.5053 57.1362 77.1511 57.5707C76.8425 57.9459 76.3746 58.1336 75.748 58.1336C74.9491 58.1336 74.4064 57.8077 74.1158 57.156C73.9161 56.7117 73.8161 56.0054 73.8161 55.0352V48.1495H70.8172ZM80.8698 59.7334H83.7847V55.0352H86.0867C87.013 55.0352 87.7803 54.8055 88.3888 54.3413C89.0789 53.818 89.4263 53.0823 89.4263 52.1319C89.4354 51.9566 89.4398 51.8233 89.4398 51.7344C89.4398 50.5989 88.9812 49.7001 88.0619 49.036C87.2445 48.4459 86.273 48.1495 85.1445 48.1495H80.8698V59.7334ZM85.5146 49.8976C85.8416 50.0753 86.0959 50.332 86.2775 50.6678C86.459 51.0037 86.5499 51.3739 86.5499 51.7788C86.5499 52.5886 86.2502 53.1219 85.6509 53.3811C85.2877 53.5367 84.6656 53.6157 83.7847 53.6157V49.5865C84.0027 49.5865 84.2251 49.5865 84.4544 49.5865C84.8541 49.616 85.206 49.7198 85.5146 49.8976Z" fill="white"/>
<path fill-rule="evenodd" clip-rule="evenodd" d="M45.0002 42.9774C50.4572 40.408 62.6759 36.1433 62.6599 28.9446L62.6555 7.16893L45.1165 0.0204277C45.0466 -0.00518417 44.9731 -0.00844193 44.884 0.0204277L27.345 7.16893L27.3406 28.9446C27.3248 36.1758 38.4457 39.6461 44.6039 42.7909L45.0002 42.9774ZM45.0002 2.1488L60.3687 8.51306C60.3657 10.66 60.3521 13.1191 60.3564 15.2662L60.3802 26.2594C60.3846 28.6325 60.3062 30.5549 59.6824 31.5422C57.6798 35.0936 48.9791 38.5752 45.0002 40.5271C41.0213 38.5752 32.3206 35.0936 30.3181 31.5422C29.6941 30.5549 29.6159 28.6325 29.6202 26.2594L29.644 15.2662C29.6484 13.1191 29.6345 10.66 29.6317 8.51306L45.0002 2.1488Z" fill="white"/>
<path fill-rule="evenodd" clip-rule="evenodd" d="M35.0482 23.3174L35.0511 17.7716L39.3623 17.7918L43.6672 17.7722L43.6812 25.5597L38.5622 25.5779C36.4284 25.5779 34.2946 25.5789 32.1609 25.5779C30.3974 25.5774 30.809 25.4266 29.7274 26.6728L27.9257 28.8824L44.8747 28.8995C47.909 28.9398 49.4824 25.8254 49.6925 22.4414L56.3285 28.8857L62.0745 28.8827L54.1269 21.24L60.6768 14.1166L55.8117 14.1126C55.0473 14.1121 54.8457 14.5412 53.612 15.9225L49.6738 20.6044C49.3948 17.2057 47.761 14.0584 44.867 14.078L30.6778 14.1754L30.7131 23.3L35.0482 23.3174Z" fill="white"/>
</svg>
