<svg width="92" height="60" viewBox="0 0 92 60" fill="none" xmlns="http://www.w3.org/2000/svg">
<path fill-rule="evenodd" clip-rule="evenodd" d="M0 59.7335H5.01308C6.59277 59.7335 7.91867 59.1953 8.98866 58.1187C10.0495 57.0522 10.58 55.6846 10.58 54.0157C10.58 53.2058 10.4217 52.4256 10.1055 51.6727C9.78903 50.9321 9.34003 50.2951 8.76306 49.7618C8.08374 49.1026 7.2976 48.6532 6.40661 48.4138C5.74593 48.2385 4.84797 48.1495 3.71503 48.1495H0V59.7335ZM5.56694 50.0309C6.18326 50.3568 6.63451 50.9147 6.92307 51.7049C7.16507 52.3566 7.28597 53.112 7.28597 53.9688C7.28597 54.8204 7.16959 55.561 6.93686 56.1932C6.63923 56.9954 6.18326 57.5534 5.56694 57.8695C5.3086 57.9954 5.04335 58.0794 4.77354 58.1187C4.4945 58.1682 4.18264 58.1929 3.84075 58.1929C3.70822 58.1929 3.58246 58.1929 3.46156 58.1929C3.33355 58.1929 3.20097 58.1879 3.0707 58.1805V49.7198C3.78721 49.7198 4.29201 49.7296 4.58047 49.7494C4.86888 49.7691 5.19693 49.863 5.56694 50.0309ZM11.4592 59.7335H14.5298V48.1495H11.4592V59.7335ZM20.9784 59.7335L17.1959 52.3985L19.5548 48.1495H17.9495L14.6556 54.0157L17.6146 59.7335H20.9784ZM28.3503 53.112H25.0982V48.1495H22.0252V59.7335H25.0982V54.6822H28.3503V59.7335H31.421V48.1495H28.3503V53.112ZM48.4353 57.9138V54.591H45.4904V57.8225C45.2112 58.0373 44.9133 58.2002 44.597 58.3088C44.2829 58.4299 43.9549 58.4891 43.62 58.4891C43.2849 58.4891 42.9407 58.4151 42.5871 58.2669C41.8054 57.941 41.2286 57.2695 40.8563 56.2525C40.5679 55.4598 40.4237 54.5192 40.4237 53.4232C40.4237 52.4256 40.6237 51.5616 41.0239 50.8308C41.5078 49.9518 42.1962 49.4631 43.0919 49.3668C43.2571 49.3446 43.3827 49.3347 43.4664 49.3347C44.1015 49.3347 44.6597 49.5568 45.1436 50.0037C45.5251 50.347 45.8927 50.8802 46.244 51.6011L47.6817 50.5198C47.1047 49.6309 46.4626 48.9742 45.7555 48.5495C45.0506 48.1347 44.2318 47.9275 43.2989 47.9275C43.0383 47.9275 42.7685 47.9424 42.4917 47.972C40.9842 47.972 39.7211 48.5646 38.7045 49.7494C37.6926 50.9369 37.1855 52.359 37.1855 54.018C37.1855 55.8055 37.7718 57.2621 38.9442 58.388C40.0701 59.4618 41.4798 60 43.1733 60C44.1597 60 45.1042 59.8223 46.0091 59.4692C46.9023 59.1137 47.7095 58.5953 48.4353 57.9138ZM49.438 59.7335H52.4225V49.5866C53.4112 49.5866 54.0672 49.6458 54.3929 49.7643C55.0444 50.0014 55.4165 50.5395 55.5095 51.3813C55.5188 51.4382 55.5234 51.4974 55.5234 51.5567C55.5234 51.6159 55.5234 51.6752 55.5234 51.7344C55.5234 52.1097 55.4676 52.4428 55.3537 52.7268C55.242 53.0133 55.0513 53.2651 54.7838 53.4825C54.6163 53.6207 54.4162 53.7145 54.1836 53.7637C53.9509 53.823 53.6927 53.855 53.4135 53.855C53.2855 53.855 53.1554 53.855 53.0251 53.855C52.8948 53.855 52.7645 53.8505 52.6342 53.8403L55.2583 59.7335H58.7058L56.0516 54.7243C56.8541 54.507 57.4589 54.1884 57.8684 53.7637C58.3429 53.2676 58.5802 52.6059 58.5802 51.7763C58.5802 50.5247 58.1196 49.5816 57.196 48.9496C56.4238 48.4162 55.4258 48.1495 54.1975 48.1495H49.438V59.7335ZM65.2822 47.9275C63.4654 47.9275 62.0231 48.5545 60.9529 49.8086C59.9945 50.9345 59.5154 52.3171 59.5154 53.9564C59.5154 55.5957 59.9945 56.9782 60.9529 58.1039C62.0231 59.368 63.4654 60 65.2822 60C67.106 60 68.5482 59.3778 69.609 58.1336C70.5652 57.0078 71.0443 55.6202 71.0443 53.9711C71.0443 52.3317 70.5697 50.9493 69.6231 49.8236C68.5623 48.5596 67.1153 47.9275 65.2822 47.9275ZM63.1165 51.3345C63.3118 50.7296 63.6143 50.2531 64.0237 49.8976C64.4331 49.5445 64.8798 49.3668 65.3636 49.3668C65.7265 49.3668 66.0661 49.4754 66.3825 49.6927C66.6919 49.9075 66.9571 50.2433 67.1804 50.6975C67.3944 51.1517 67.5503 51.6431 67.6527 52.1665C67.755 52.6874 67.8063 53.2552 67.8063 53.8675C67.8063 54.2131 67.8018 54.4846 67.7922 54.6822C67.7759 54.8797 67.7364 55.1807 67.6805 55.5857C67.5597 56.3461 67.2759 57.0226 66.8292 57.6152C66.336 58.2669 65.7964 58.5928 65.21 58.5928C64.996 58.5928 64.7774 58.5384 64.5563 58.4299C64.3214 58.3311 64.0981 58.1731 63.8841 57.9559C63.5026 57.6003 63.2234 57.072 63.0467 56.3708C62.8605 55.6696 62.7675 54.8845 62.7675 54.018C62.7675 52.9195 62.8837 52.0257 63.1165 51.3345ZM71.9911 48.1495V55.5266C71.9911 56.2474 72.0517 56.835 72.1749 57.2918C72.3307 57.8843 72.6053 58.388 72.9961 58.8027C73.4265 59.2076 73.9336 59.5087 74.5198 59.7062C75.1037 59.9013 75.7084 60 76.332 60C79.17 60 80.5891 58.5089 80.5891 55.5266V48.1495H79.0257V55.0353C79.0257 56.2894 78.8444 57.1362 78.4815 57.5707C78.1652 57.9459 77.6858 58.1336 77.0437 58.1336C76.2251 58.1336 75.6689 57.8077 75.3712 57.156C75.1666 56.7117 75.0641 56.0054 75.0641 55.0353V48.1495H71.9911ZM82.2919 59.7335H85.2788V55.0353H87.6376C88.5867 55.0353 89.373 54.8055 89.9965 54.3413C90.7036 53.818 91.0597 53.0824 91.0597 52.132C91.0689 51.9566 91.0734 51.8234 91.0734 51.7344C91.0734 50.5989 90.6036 49.7001 89.6616 49.036C88.824 48.4459 87.8285 48.1495 86.6722 48.1495H82.2919V59.7335ZM87.0514 49.8976C87.3864 50.0753 87.647 50.332 87.8331 50.6678C88.0191 51.0037 88.1122 51.374 88.1122 51.7789C88.1122 52.5886 87.8051 53.122 87.1911 53.3812C86.8188 53.5367 86.1815 53.6157 85.2788 53.6157V49.5866C85.5021 49.5866 85.73 49.5866 85.965 49.5866C86.3745 49.6161 86.7351 49.7199 87.0514 49.8976Z" fill="#ED1C24"/>
<path fill-rule="evenodd" clip-rule="evenodd" d="M45.5369 42.9775C51.1287 40.4081 63.6489 36.1433 63.6326 28.9446L63.628 7.16896L45.6561 0.0204544C45.5845 -0.00515747 45.5092 -0.00841522 45.4178 0.0204544L27.4459 7.16896L27.4414 28.9446C27.4252 36.1758 38.8206 39.6462 45.1309 42.7909L45.5369 42.9775ZM45.5369 2.14883L61.2848 8.51309C61.2818 10.6601 61.2677 13.1191 61.2722 15.2662L61.2966 26.2594C61.3011 28.6326 61.2207 30.5549 60.5815 31.5423C58.5296 35.0936 49.6141 38.5752 45.5369 40.5271C41.4599 38.5752 32.5443 35.0936 30.4924 31.5423C29.8531 30.5549 29.7729 28.6326 29.7773 26.2594L29.8017 15.2662C29.8062 13.1191 29.792 10.6601 29.7891 8.51309L45.5369 2.14883Z" fill="#ED1C24"/>
<path fill-rule="evenodd" clip-rule="evenodd" d="M35.3393 23.3175L35.3423 17.7717L39.76 17.7919L44.1712 17.7723L44.1855 25.5598L38.9401 25.578C36.7536 25.578 34.5671 25.579 32.3808 25.578C30.5738 25.5775 30.9955 25.4267 29.8873 26.6729L28.041 28.8825L45.4084 28.8996C48.5176 28.9399 50.1299 25.8255 50.3452 22.4415L57.1449 28.8858L63.0328 28.8828L54.889 21.2401L61.6006 14.1167L56.6154 14.1127C55.8321 14.1122 55.6255 14.5413 54.3614 15.9226L50.326 20.6045C50.0401 17.2058 48.366 14.0585 45.4006 14.0781L30.8611 14.1755L30.8973 23.3L35.3393 23.3175Z" fill="#ED1C24"/>
</svg>
