<svg width="28" height="25" viewBox="0 0 28 25" fill="none" xmlns="http://www.w3.org/2000/svg">
<path d="M14 20.1388H4.27778C3.54107 20.1388 2.83453 19.8461 2.31359 19.3252C1.79266 18.8043 1.5 18.0977 1.5 17.361V3.47211M1.5 3.47211C1.5 2.7354 1.79266 2.02886 2.31359 1.50793C2.83453 0.986994 3.54107 0.694336 4.27778 0.694336H23.7222C24.4589 0.694336 25.1655 0.986994 25.6864 1.50793C26.2073 2.02886 26.5 2.7354 26.5 3.47211M1.5 3.47211L14 11.8054L26.5 3.47211M26.5 3.47211V13.8888M18.1667 20.1388H26.5M26.5 20.1388L22.3333 15.9721M26.5 20.1388L22.3333 24.3054" stroke="white" stroke-width="2" stroke-linecap="round" stroke-linejoin="round"/>
</svg>
