<svg width="40" height="41" viewBox="0 0 40 41" fill="none" xmlns="http://www.w3.org/2000/svg">
<path d="M18.7163 9.34627C18.7163 9.34627 17.7987 10.2114 17.7846 12.7446L17.784 15.3884H14.4617V19.1316H17.784V28.8016H21.6158V19.1316H24.912L25.3715 15.3884H21.6158V12.7446H21.6147C21.6242 12.4496 21.7557 11.1463 23.2948 11.173H25.5376V7.64787H22.1765C22.1765 7.64787 20.0636 7.59547 18.7163 9.34627Z" fill="white"/>
<path d="M39.9629 22.0211C39.966 21.9782 39.9713 21.9352 39.9739 21.8917C39.9776 21.8335 39.9707 21.7843 39.9608 21.7382C39.9372 19.8396 39.9031 17.941 39.856 16.0445C39.7921 13.4616 40.1033 10.5118 39.3178 8.02C38.0093 3.8707 33.6776 0.823442 29.4015 0.754269C29.2312 0.751649 29.0609 0.753746 28.8906 0.760558C26.0613 0.367008 23.0602 0.52317 20.2304 0.570857C17.2277 0.621688 14.1474 0.630073 11.1677 1.05559C8.39351 1.10328 5.81945 2.53494 3.94551 4.53937C2.97971 5.57224 2.17952 6.76756 1.59993 8.06192C0.683398 10.1072 0.496842 12.403 0.399895 14.6171C0.292993 17.0674 -0.117326 19.6347 0.0325476 22.0657C0.31081 26.5813 -0.17497 31.8305 2.7549 35.5868C4.2463 37.4985 6.31519 39.0281 8.6309 39.7822C12.4474 41.0247 16.9934 40.2748 20.9446 40.2842C23.2776 40.2895 25.8265 40.5531 28.2172 40.3319C32.4881 40.4949 36.6431 37.4492 38.7209 33.8449C39.7407 32.0758 39.9576 30.1264 39.9938 28.1513C40.0043 27.5691 39.999 26.9843 39.9943 26.4021C39.9943 24.9421 39.9802 23.4811 39.9629 22.0211ZM4.86519 4.92506C6.90787 3.06212 9.11248 2.50978 11.642 1.96584C14.5006 1.9695 17.3692 1.73369 20.2304 1.73107C22.6436 1.72897 25.051 1.95169 27.4642 1.94016C30.7006 1.92444 33.479 2.15292 35.8508 4.66094C37.6278 6.54013 38.2084 8.69705 38.6486 11.0741C38.5711 14.212 38.9657 17.4495 39.0055 20.5701C39.0144 21.255 39.0317 21.952 39.0464 22.6552C37.6535 27.6838 36.2312 32.234 31.7623 33.8517C27.8619 35.2635 23.3762 34.8353 19.3542 34.9737C15.0204 35.1225 10.2392 35.9018 6.22925 33.2837C1.89182 30.4513 1.05546 24.6308 1.2242 18.8879C1.22682 18.7957 1.19328 18.7271 1.14612 18.6809C1.22263 16.9857 1.38194 15.2941 1.51976 13.6031C1.80116 10.1523 2.17427 7.37963 4.86519 4.92506ZM37.1583 30.859C36.4225 32.7251 35.3744 34.4318 33.5917 35.4705C30.5381 37.2501 25.4215 36.5825 21.9959 36.6951C16.1408 36.8869 4.84213 38.5015 2.74914 31.3269C3.09081 31.852 3.47073 32.3478 3.89835 32.801C7.91716 37.0662 13.5725 36.4614 18.4246 36.2733C23.2268 36.0873 29.0525 37.02 33.5671 34.4324C34.9662 33.6301 36.1762 32.3792 37.1583 30.859ZM35.3461 36.1397C33.6399 37.7427 31.2168 38.9878 28.8507 39.0795C26.2615 39.1796 23.5575 39.0947 20.9446 39.101C16.1848 39.112 10.1993 40.0311 6.02854 37.2045C4.60789 36.2418 3.2999 35.0177 2.52066 33.4592C2.14336 32.7046 1.95628 31.9196 1.84623 31.1194C3.3806 38.7714 15.1069 38.4459 21.1354 38.3238C25.3995 38.2374 30.3584 38.8107 34.112 36.3592C36.8674 34.5597 38.1199 31.3054 38.9043 28.2011C38.5815 31.1519 37.6818 33.9445 35.3461 36.1397Z" fill="white"/>
</svg>
