<svg width="24" height="26" viewBox="0 0 24 26" fill="none" xmlns="http://www.w3.org/2000/svg">
<g clip-path="url(#clip0_66_3258)">
<path d="M7.68855 7.68855C8.25337 7.68855 8.71549 7.22643 8.71549 6.66162V5.63468C8.71549 3.92997 10.0916 2.55387 11.7963 2.55387C13.501 2.55387 14.8771 3.92997 14.8771 5.63468V6.66162C14.8771 7.22643 15.3392 7.68855 15.904 7.68855C16.4689 7.68855 16.931 7.22643 16.931 6.66162V5.63468C16.931 2.80034 14.6306 0.5 11.7963 0.5C8.96195 0.5 6.66162 2.80034 6.66162 5.63468V6.66162C6.66162 7.22643 7.12374 7.68855 7.68855 7.68855ZM11.7963 15.904C8.96195 15.904 6.66162 13.6037 6.66162 10.7694C6.66162 10.2045 7.12374 9.74242 7.68855 9.74242C8.25337 9.74242 8.71549 10.2045 8.71549 10.7694C8.71549 12.4741 10.0916 13.8502 11.7963 13.8502C13.501 13.8502 14.8771 12.4741 14.8771 10.7694C14.8771 10.2045 15.3392 9.74242 15.904 9.74242C16.4689 9.74242 16.931 10.2045 16.931 10.7694C16.931 13.6037 14.6306 15.904 11.7963 15.904ZM23.0926 18.8822L22.0657 8.71549C22.0657 7.01077 20.6896 5.63468 18.9848 5.63468H4.60774C2.94411 5.62441 1.57828 6.94916 1.52694 8.61279L0.5 18.9848C0.5 22.384 3.26246 25.1465 6.66162 25.1465H16.931C20.3507 25.1362 23.1029 22.3532 23.0926 18.9335C23.0926 18.9232 23.0926 18.9027 23.0926 18.8822Z" fill="#835E58"/>
</g>
<defs>
<clipPath id="clip0_66_3258">
<rect width="23" height="25" fill="white" transform="translate(0.5 0.5)"/>
</clipPath>
</defs>
</svg>
