<svg width="113" height="117" viewBox="0 0 113 117" fill="none" xmlns="http://www.w3.org/2000/svg">
<path d="M81.1276 87.6467C89.4797 81.1056 94.8913 71.5146 96.172 60.9835C97.4526 50.4524 94.4973 39.8439 87.9563 31.4918C81.4152 23.1397 71.8242 17.728 61.2931 16.4474C50.7621 15.1667 40.1536 18.122 31.8014 24.6631L56.4645 56.1549L81.1276 87.6467Z" fill="#2F5ACF"/>
<path d="M56.7955 50V48.25L62.2955 40.9091H56.8182V38.3636H66.3182V40.1136L60.8182 47.4545H66.2955V50H56.7955ZM69.5366 50.1364C68.9798 50.1364 68.4874 50.0455 68.0594 49.8636C67.6351 49.678 67.3018 49.3977 67.0594 49.0227C66.817 48.6477 66.6957 48.1705 66.6957 47.5909C66.6957 47.1136 66.7772 46.7064 66.9401 46.3693C67.1029 46.0284 67.3302 45.75 67.6219 45.5341C67.9135 45.3182 68.2526 45.1534 68.6389 45.0398C69.0291 44.9261 69.4495 44.8523 69.9003 44.8182C70.3889 44.7803 70.781 44.7348 71.0764 44.6818C71.3757 44.625 71.5916 44.5473 71.7241 44.4489C71.8567 44.3466 71.923 44.2121 71.923 44.0455V44.0227C71.923 43.7955 71.8359 43.6212 71.6616 43.5C71.4874 43.3788 71.2639 43.3182 70.9912 43.3182C70.692 43.3182 70.4476 43.3845 70.2582 43.517C70.0726 43.6458 69.9609 43.8447 69.923 44.1136H67.0366C67.0745 43.5833 67.2431 43.0947 67.5423 42.6477C67.8454 42.197 68.2866 41.8371 68.8662 41.5682C69.4457 41.2955 70.1692 41.1591 71.0366 41.1591C71.6616 41.1591 72.2223 41.233 72.7185 41.3807C73.2147 41.5246 73.637 41.7273 73.9855 41.9886C74.334 42.2462 74.5991 42.5492 74.781 42.8977C74.9666 43.2424 75.0594 43.6174 75.0594 44.0227V50H72.1276V48.7727H72.0594C71.8851 49.0985 71.673 49.3617 71.423 49.5625C71.1768 49.7633 70.8946 49.9091 70.5764 50C70.262 50.0909 69.9154 50.1364 69.5366 50.1364ZM70.5594 48.1591C70.798 48.1591 71.0215 48.1098 71.2298 48.0114C71.442 47.9129 71.6143 47.7708 71.7469 47.5852C71.8795 47.3996 71.9457 47.1742 71.9457 46.9091V46.1818C71.8624 46.2159 71.7734 46.2481 71.6787 46.2784C71.5878 46.3087 71.4893 46.3371 71.3832 46.3636C71.281 46.3902 71.1711 46.4148 71.0537 46.4375C70.9401 46.4602 70.8207 46.4811 70.6957 46.5C70.4533 46.5379 70.2545 46.6004 70.0991 46.6875C69.9476 46.7708 69.834 46.875 69.7582 47C69.6863 47.1212 69.6503 47.2576 69.6503 47.4091C69.6503 47.6515 69.7355 47.8371 69.906 47.9659C70.0764 48.0947 70.2942 48.1591 70.5594 48.1591ZM78.8943 38.3636V50H75.758V38.3636H78.8943ZM83.8969 50.1591C82.9499 50.1591 82.1393 49.9716 81.4651 49.5966C80.7908 49.2178 80.2738 48.6913 79.9139 48.017C79.5541 47.339 79.3741 46.553 79.3741 45.6591C79.3741 44.7652 79.5541 43.9811 79.9139 43.3068C80.2738 42.6288 80.7908 42.1023 81.4651 41.7273C82.1393 41.3485 82.9499 41.1591 83.8969 41.1591C84.8438 41.1591 85.6545 41.3485 86.3287 41.7273C87.0029 42.1023 87.52 42.6288 87.8798 43.3068C88.2397 43.9811 88.4196 44.7652 88.4196 45.6591C88.4196 46.553 88.2397 47.339 87.8798 48.017C87.52 48.6913 87.0029 49.2178 86.3287 49.5966C85.6545 49.9716 84.8438 50.1591 83.8969 50.1591ZM83.9196 47.8409C84.1848 47.8409 84.4139 47.7519 84.6071 47.5739C84.8003 47.3958 84.9499 47.142 85.056 46.8125C85.162 46.483 85.2151 46.0909 85.2151 45.6364C85.2151 45.178 85.162 44.786 85.056 44.4602C84.9499 44.1307 84.8003 43.8769 84.6071 43.6989C84.4139 43.5208 84.1848 43.4318 83.9196 43.4318C83.6393 43.4318 83.3988 43.5208 83.198 43.6989C82.9973 43.8769 82.8438 44.1307 82.7378 44.4602C82.6317 44.786 82.5787 45.178 82.5787 45.6364C82.5787 46.0909 82.6317 46.483 82.7378 46.8125C82.8438 47.142 82.9973 47.3958 83.198 47.5739C83.3988 47.7519 83.6393 47.8409 83.9196 47.8409Z" fill="white"/>
<path d="M80.8596 91.6271C72.5145 98.1772 61.9093 101.144 51.3768 99.8749C40.8444 98.6057 31.2475 93.2045 24.6973 84.8595C18.1472 76.5145 15.1804 65.9092 16.4495 55.3767C17.7187 44.8443 23.1199 35.2474 31.4649 28.6972L56.1623 60.1622L80.8596 91.6271Z" fill="#ED3237"/>
<path d="M32.0452 53.0449H36.0452L38.0452 58.0449L35.5452 59.5449C36.6161 61.7165 38.3736 63.474 40.5452 64.5449L42.0452 62.0449L47.0452 64.0449V68.0449C47.0452 68.5754 46.8345 69.0841 46.4594 69.4591C46.0843 69.8342 45.5756 70.0449 45.0452 70.0449C41.1444 69.8079 37.4653 68.1514 34.702 65.3881C31.9387 62.6248 30.2822 58.9457 30.0452 55.0449C30.0452 54.5145 30.2559 54.0058 30.631 53.6307C31.006 53.2556 31.5147 53.0449 32.0452 53.0449Z" stroke="white" stroke-width="2" stroke-linecap="round" stroke-linejoin="round"/>
<path d="M31.0139 85.0449V77.0449H31.9827V80.6074H36.2483V77.0449H37.217V85.0449H36.2483V81.4668H31.9827V85.0449H31.0139ZM40.919 85.1699C40.3773 85.1699 39.9021 85.041 39.4932 84.7832C39.087 84.5254 38.7693 84.1647 38.5401 83.7012C38.3135 83.2376 38.2002 82.696 38.2002 82.0762C38.2002 81.4512 38.3135 80.9056 38.5401 80.4395C38.7693 79.9733 39.087 79.6113 39.4932 79.3535C39.9021 79.0957 40.3773 78.9668 40.919 78.9668C41.4607 78.9668 41.9346 79.0957 42.3409 79.3535C42.7497 79.6113 43.0674 79.9733 43.294 80.4395C43.5232 80.9056 43.6377 81.4512 43.6377 82.0762C43.6377 82.696 43.5232 83.2376 43.294 83.7012C43.0674 84.1647 42.7497 84.5254 42.3409 84.7832C41.9346 85.041 41.4607 85.1699 40.919 85.1699ZM40.919 84.3418C41.3305 84.3418 41.669 84.2363 41.9346 84.0254C42.2002 83.8145 42.3969 83.5371 42.5245 83.1934C42.6521 82.8496 42.7159 82.4772 42.7159 82.0762C42.7159 81.6751 42.6521 81.3014 42.5245 80.9551C42.3969 80.6087 42.2002 80.3288 41.9346 80.1152C41.669 79.9017 41.3305 79.7949 40.919 79.7949C40.5075 79.7949 40.169 79.9017 39.9034 80.1152C39.6377 80.3288 39.4411 80.6087 39.3135 80.9551C39.1859 81.3014 39.1221 81.6751 39.1221 82.0762C39.1221 82.4772 39.1859 82.8496 39.3135 83.1934C39.4411 83.5371 39.6377 83.8145 39.9034 84.0254C40.169 84.2363 40.5075 84.3418 40.919 84.3418ZM47.1043 79.0449V79.8262H43.995V79.0449H47.1043ZM44.9012 77.6074H45.8231V83.3262C45.8231 83.5866 45.8609 83.7819 45.9364 83.9121C46.0145 84.0397 46.1135 84.1257 46.2333 84.1699C46.3556 84.2116 46.4846 84.2324 46.62 84.2324C46.7215 84.2324 46.8049 84.2272 46.87 84.2168C46.9351 84.2038 46.9872 84.1934 47.0262 84.1855L47.2137 85.0137C47.1512 85.0371 47.064 85.0605 46.952 85.084C46.84 85.11 46.6981 85.123 46.5262 85.123C46.2658 85.123 46.0106 85.0671 45.7606 84.9551C45.5132 84.8431 45.3075 84.6725 45.1434 84.4434C44.9819 84.2142 44.9012 83.9251 44.9012 83.5762V77.6074ZM48.9918 77.0449V85.0449H48.07V77.0449H48.9918ZM50.1303 85.0449V79.0449H51.0522V85.0449H50.1303ZM50.5991 78.0449C50.4194 78.0449 50.2644 77.9837 50.1342 77.8613C50.0066 77.7389 49.9428 77.5918 49.9428 77.4199C49.9428 77.248 50.0066 77.1009 50.1342 76.9785C50.2644 76.8561 50.4194 76.7949 50.5991 76.7949C50.7788 76.7949 50.9324 76.8561 51.06 76.9785C51.1902 77.1009 51.2553 77.248 51.2553 77.4199C51.2553 77.5918 51.1902 77.7389 51.06 77.8613C50.9324 77.9837 50.7788 78.0449 50.5991 78.0449ZM53.1125 81.4355V85.0449H52.1907V79.0449H53.0813V79.9824H53.1594C53.3 79.6777 53.5136 79.4329 53.8 79.248C54.0865 79.0605 54.4563 78.9668 54.9094 78.9668C55.3157 78.9668 55.6711 79.0501 55.9758 79.2168C56.2805 79.3809 56.5175 79.6309 56.6868 79.9668C56.856 80.3001 56.9407 80.722 56.9407 81.2324V85.0449H56.0188V81.2949C56.0188 80.8236 55.8964 80.4564 55.6516 80.1934C55.4068 79.9277 55.0709 79.7949 54.6438 79.7949C54.3495 79.7949 54.0865 79.8587 53.8547 79.9863C53.6256 80.1139 53.4446 80.3001 53.3118 80.5449C53.179 80.7897 53.1125 81.0866 53.1125 81.4355ZM60.5909 85.1699C60.0127 85.1699 59.514 85.0423 59.0948 84.7871C58.6781 84.5293 58.3565 84.1699 58.1299 83.709C57.906 83.2454 57.794 82.7064 57.794 82.0918C57.794 81.4772 57.906 80.9355 58.1299 80.4668C58.3565 79.9954 58.6716 79.6283 59.0752 79.3652C59.4815 79.0996 59.9555 78.9668 60.4971 78.9668C60.8096 78.9668 61.1182 79.0189 61.4229 79.123C61.7276 79.2272 62.0049 79.3965 62.2549 79.6309C62.5049 79.8626 62.7042 80.1699 62.8526 80.5527C63.001 80.9355 63.0752 81.4069 63.0752 81.9668V82.3574H58.4502V81.5605H62.1377C62.1377 81.222 62.07 80.9199 61.9346 80.6543C61.8018 80.3887 61.6117 80.179 61.3643 80.0254C61.1195 79.8717 60.8305 79.7949 60.4971 79.7949C60.1299 79.7949 59.8122 79.8861 59.544 80.0684C59.2784 80.248 59.0739 80.4824 58.9307 80.7715C58.7875 81.0605 58.7159 81.3704 58.7159 81.7012V82.2324C58.7159 82.6855 58.794 83.0697 58.9502 83.3848C59.1091 83.6973 59.3292 83.9355 59.6104 84.0996C59.8917 84.2611 60.2185 84.3418 60.5909 84.3418C60.8331 84.3418 61.0518 84.3079 61.2471 84.2402C61.445 84.1699 61.6156 84.0658 61.7588 83.9277C61.9021 83.7871 62.0127 83.6126 62.0909 83.4043L62.9815 83.6543C62.8877 83.9564 62.7302 84.222 62.5088 84.4512C62.2875 84.6777 62.014 84.8548 61.6885 84.9824C61.363 85.1074 60.9971 85.1699 60.5909 85.1699Z" fill="white"/>
</svg>
