<svg width="40" height="41" viewBox="0 0 40 41" fill="none" xmlns="http://www.w3.org/2000/svg">
<path d="M24.1865 7.6106H16.0708C12.4722 7.6106 9.55493 10.5279 9.55493 14.127V22.2416C9.55493 25.8396 12.4717 28.7564 16.0708 28.7564H24.1865C27.785 28.7564 30.7013 25.8396 30.7013 22.2416V14.1264C30.7013 10.5274 27.785 7.6106 24.1865 7.6106ZM28.6717 21.4629C28.6717 24.3713 26.3141 26.7274 23.4072 26.7274H16.8484C13.9406 26.7274 11.5835 24.3713 11.5835 21.4629V14.9041C11.5835 11.9978 13.9406 9.63913 16.8484 9.63913H23.4072C26.3135 9.63913 28.6717 11.9973 28.6717 14.9041V21.4629Z" fill="white"/>
<path d="M20.4113 12.6509C17.3342 12.6509 14.8403 15.1437 14.8403 18.2203C14.8403 21.2953 17.3342 23.7903 20.4113 23.7903C23.4874 23.7903 25.9813 21.2953 25.9813 18.2203C25.9813 15.1437 23.4874 12.6509 20.4113 12.6509ZM20.4113 21.5715C18.5589 21.5715 17.0596 20.0707 17.0596 18.2208C17.0596 16.3689 18.5594 14.8696 20.4113 14.8696C22.2617 14.8696 23.762 16.3689 23.762 18.2208C23.762 20.0707 22.2617 21.5715 20.4113 21.5715Z" fill="white"/>
<path d="M25.5956 11.1462C24.8138 11.1462 24.1797 11.7814 24.1797 12.5632C24.1797 13.3456 24.8132 13.9797 25.5956 13.9797C26.377 13.9797 27.0126 13.3456 27.0126 12.5632C27.0126 11.7819 26.377 11.1462 25.5956 11.1462Z" fill="white"/>
<path d="M39.9629 22.0211C39.9661 21.9782 39.9713 21.9352 39.9739 21.8917C39.9776 21.8335 39.9708 21.7843 39.9608 21.7382C39.9372 19.8396 39.9032 17.941 39.856 16.0445C39.7921 13.4616 40.1034 10.5118 39.3178 8.02C38.0093 3.8707 33.6777 0.823442 29.4015 0.754269C29.2312 0.751649 29.0609 0.753746 28.8906 0.760558C26.0613 0.367008 23.0602 0.52317 20.2304 0.570857C17.2277 0.621688 14.1474 0.630073 11.1678 1.05559C8.39355 1.10328 5.81948 2.53494 3.94554 4.53937C2.97974 5.57224 2.17955 6.76756 1.59944 8.06192C0.682908 10.1072 0.496348 12.403 0.399402 14.6171C0.292499 17.0674 -0.117814 19.6347 0.0320597 22.0657C0.310322 26.5813 -0.17547 31.8305 2.7544 35.5868C4.24528 37.4985 6.3147 39.0281 8.6304 39.7822C12.4469 41.0247 16.9929 40.2748 20.9441 40.2842C23.2771 40.2895 25.8261 40.5531 28.2167 40.3319C32.4876 40.4949 36.6426 37.4492 38.7204 33.8449C39.7402 32.0758 39.9572 30.1264 39.9933 28.1513C40.0038 27.5691 39.9986 26.9843 39.9938 26.4021C39.9944 24.9421 39.9802 23.4811 39.9629 22.0211ZM4.86522 4.92506C6.9079 3.06212 9.11252 2.50978 11.642 1.96584C14.5006 1.9695 17.3692 1.73369 20.2304 1.73107C22.6436 1.72897 25.051 1.95169 27.4642 1.94016C30.7006 1.92444 33.479 2.15292 35.8508 4.66094C37.6278 6.54013 38.2084 8.69705 38.6486 11.0741C38.5711 14.212 38.9657 17.4495 39.0055 20.5701C39.0144 21.255 39.0317 21.952 39.0464 22.6552C37.6535 27.6838 36.2313 32.234 31.7623 33.8517C27.8619 35.2635 23.3762 34.8353 19.3542 34.9737C15.0205 35.1225 10.2392 35.9018 6.22928 33.2837C1.89185 30.4513 1.05549 24.6308 1.22423 18.8879C1.22685 18.7957 1.19331 18.7271 1.14614 18.6809C1.22265 16.9857 1.38197 15.2941 1.51979 13.6031C1.80067 10.1523 2.17431 7.37963 4.86522 4.92506ZM37.1578 30.859C36.422 32.7251 35.3739 34.4318 33.5912 35.4705C30.5376 37.2501 25.421 36.5825 21.9954 36.6951C16.1403 36.8869 4.84164 38.5015 2.74865 31.3269C3.09032 31.852 3.47024 32.3478 3.89785 32.801C7.91667 37.0662 13.572 36.4614 18.4241 36.2733C23.2263 36.0873 29.052 37.02 33.5666 34.4324C34.9663 33.6301 36.1762 32.3792 37.1578 30.859ZM35.3457 36.1397C33.6394 37.7427 31.2163 38.9878 28.8503 39.0795C26.261 39.1796 23.557 39.0947 20.9441 39.101C16.1843 39.112 10.1988 40.0311 6.02805 37.2045C4.60739 36.2418 3.2994 35.0177 2.52017 33.4592C2.14286 32.7046 1.95579 31.9196 1.84574 31.1194C3.38064 38.7714 15.1064 38.4459 21.1349 38.3238C25.399 38.2374 30.3579 38.8107 34.1116 36.3592C36.8669 34.5597 38.1194 31.3054 38.9044 28.2011C38.5816 31.1519 37.6818 33.9445 35.3457 36.1397Z" fill="white"/>
</svg>
