<svg width="230" height="44" viewBox="0 0 230 44" fill="none" xmlns="http://www.w3.org/2000/svg">
<path fill-rule="evenodd" clip-rule="evenodd" d="M46.4845 31.8453H56.5861C59.769 31.8453 62.4408 30.7611 64.5969 28.5918C66.7343 26.4429 67.8033 23.6868 67.8033 20.3239C67.8033 18.692 67.4846 17.12 66.8471 15.6029C66.2094 14.1106 65.3049 12.8269 64.1423 11.7522C62.7735 10.424 61.1892 9.51836 59.3939 9.03602C58.0627 8.68276 56.2534 8.50365 53.9704 8.50365H46.4845V31.8453ZM57.7018 12.2943C58.9438 12.9512 59.8532 14.0754 60.4345 15.6676C60.9221 16.9808 61.1656 18.5029 61.1656 20.2293C61.1656 21.9456 60.9313 23.4378 60.4625 24.7118C59.8625 26.3283 58.9438 27.4525 57.7018 28.0896C57.1813 28.3433 56.647 28.5124 56.1033 28.5918C55.5408 28.6913 54.9127 28.7411 54.2236 28.7411C53.9565 28.7411 53.7032 28.7411 53.4596 28.7411C53.2016 28.7411 52.9346 28.731 52.672 28.7164V11.6677C54.1158 11.6677 55.1328 11.6873 55.7143 11.7273C56.2955 11.7672 56.9563 11.9561 57.7018 12.2943ZM69.5751 31.8453H75.7626V8.50365H69.5751V31.8453ZM88.7565 31.8453L81.1344 17.0652L85.8876 8.50365H82.6531L76.0159 20.3239L81.9783 31.8453H88.7565ZM103.611 18.5029H97.058V8.50365H90.8658V31.8453H97.058V21.667H103.611V31.8453H109.799V8.50365H103.611V18.5029ZM144.083 28.1789V21.4831H138.149V27.9947C137.586 28.4275 136.986 28.7561 136.349 28.9747C135.716 29.2189 135.055 29.3382 134.38 29.3382C133.705 29.3382 133.011 29.1889 132.298 28.8903C130.724 28.2334 129.561 26.8805 128.811 24.831C128.23 23.2339 127.939 21.3386 127.939 19.1299C127.939 17.12 128.342 15.3789 129.148 13.9061C130.124 12.1353 131.511 11.1505 133.316 10.9563C133.649 10.9116 133.902 10.8915 134.07 10.8915C135.35 10.8915 136.475 11.3394 137.45 12.2397C138.219 12.9313 138.96 14.0061 139.667 15.4586L142.564 13.2797C141.402 11.4884 140.108 10.1653 138.683 9.30956C137.263 8.4738 135.613 8.05593 133.733 8.05593C133.208 8.05593 132.664 8.08589 132.107 8.14546C129.069 8.14546 126.524 9.3397 124.475 11.7273C122.436 14.1201 121.414 16.9857 121.414 20.3285C121.414 23.9305 122.596 26.8657 124.958 29.1342C127.227 31.298 130.067 32.3825 133.48 32.3825C135.467 32.3825 137.37 32.0242 139.194 31.3128C140.994 30.5965 142.62 29.5518 144.083 28.1789ZM146.103 31.8453H152.117V11.3992C154.11 11.3992 155.431 11.5185 156.088 11.7574C157.4 12.235 158.15 13.3192 158.338 15.0158C158.356 15.1303 158.366 15.2496 158.366 15.3692C158.366 15.4885 158.366 15.6079 158.366 15.7272C158.366 16.4831 158.253 17.1546 158.024 17.7269C157.799 18.3042 157.414 18.8114 156.875 19.2493C156.538 19.5279 156.134 19.717 155.666 19.8163C155.197 19.9356 154.677 20.0002 154.114 20.0002C153.856 20.0002 153.594 20.0002 153.331 20.0002C153.069 20.0002 152.806 19.9906 152.544 19.9705L157.831 31.8453H164.778L159.43 21.7516C161.047 21.3138 162.266 20.672 163.091 19.8163C164.047 18.8164 164.525 17.4832 164.525 15.8116C164.525 13.2896 163.597 11.3891 161.736 10.1155C160.18 9.04102 158.169 8.50365 155.694 8.50365H146.103V31.8453ZM178.03 8.05593C174.369 8.05593 171.463 9.31963 169.306 11.8466C167.375 14.1151 166.41 16.9013 166.41 20.2047C166.41 23.5077 167.375 26.2935 169.306 28.5619C171.463 31.109 174.369 32.3825 178.03 32.3825C181.705 32.3825 184.611 31.1289 186.749 28.6217C188.675 26.3533 189.641 23.5572 189.641 20.234C189.641 16.9308 188.685 14.145 186.777 11.8768C184.639 9.32963 181.724 8.05593 178.03 8.05593ZM173.666 14.921C174.06 13.7024 174.669 12.7422 175.494 12.026C176.319 11.3143 177.219 10.9563 178.194 10.9563C178.925 10.9563 179.609 11.1753 180.247 11.613C180.871 12.0458 181.405 12.7224 181.855 13.6378C182.286 14.553 182.6 15.5428 182.806 16.5977C183.013 17.6473 183.116 18.7916 183.116 20.0253C183.116 20.7219 183.106 21.269 183.088 21.667C183.055 22.0649 182.975 22.6716 182.863 23.4875C182.619 25.02 182.047 26.3831 181.147 27.5771C180.153 28.8903 179.066 29.5472 177.885 29.5472C177.453 29.5472 177.013 29.4374 176.567 29.2189C176.094 29.0197 175.644 28.7014 175.213 28.2635C174.444 27.5471 173.881 26.4825 173.525 25.0697C173.15 23.6569 172.963 22.0747 172.963 20.3285C172.963 18.1152 173.197 16.314 173.666 14.921ZM191.549 8.50365V23.3683C191.549 24.8208 191.671 26.005 191.919 26.9252C192.233 28.1193 192.786 29.1342 193.574 29.9697C194.441 30.7857 195.463 31.3924 196.644 31.7904C197.82 32.1835 199.039 32.3825 200.296 32.3825C206.014 32.3825 208.874 29.3779 208.874 23.3683V8.50365H205.724V22.3782C205.724 24.9057 205.358 26.6119 204.627 27.4875C203.989 28.2434 203.023 28.6217 201.73 28.6217C200.08 28.6217 198.959 27.9648 198.359 26.6519C197.947 25.7563 197.741 24.3333 197.741 22.3782V8.50365H191.549ZM212.305 31.8453H218.324V22.3782H223.077C224.989 22.3782 226.574 21.9155 227.83 20.9802C229.255 19.9258 229.972 18.4434 229.972 16.5283C229.991 16.1748 230 15.9063 230 15.7272C230 13.4388 229.053 11.6278 227.155 10.2897C225.467 9.1008 223.461 8.50365 221.131 8.50365H212.305V31.8453ZM221.895 12.026C222.571 12.384 223.095 12.9012 223.471 13.578C223.846 14.2545 224.033 15.0007 224.033 15.8168C224.033 17.4483 223.414 18.523 222.177 19.0453C221.427 19.3588 220.142 19.5178 218.324 19.5178V11.3992C218.774 11.3992 219.233 11.3992 219.707 11.3992C220.531 11.4587 221.258 11.6677 221.895 12.026Z" fill="#ED1C24"/>
<path fill-rule="evenodd" clip-rule="evenodd" d="M18.0299 43.4269C23.6012 40.8669 36.0757 36.6176 36.0594 29.4452L36.0548 7.74913L18.1483 0.626625C18.077 0.60115 18.0021 0.598071 17.911 0.626625L0.00463257 7.74913L1.72372e-05 29.4452C-0.0161453 36.6501 11.3377 40.1077 17.6248 43.241L18.0299 43.4269ZM18.0299 2.74747L33.7202 9.08825C33.7171 11.2276 33.7034 13.6777 33.7078 15.817L33.732 26.7698C33.7366 29.1343 33.6565 31.0496 33.0195 32.0335C30.975 35.5718 22.0921 39.0408 18.0299 40.9856C13.9676 39.0408 5.08467 35.5718 3.04026 32.0335C2.40315 31.0496 2.32334 29.1343 2.32773 26.7698L2.35212 15.817C2.35674 13.6777 2.34236 11.2276 2.33951 9.08825L18.0299 2.74747Z" fill="#ED1C24"/>
<path fill-rule="evenodd" clip-rule="evenodd" d="M7.86953 23.8387L7.87261 18.3132L12.2741 18.3333L16.6693 18.3139L16.6835 26.0728L11.4573 26.0908C9.27891 26.0908 7.10035 26.0916 4.92194 26.0908C3.12159 26.0902 3.54182 25.9402 2.43769 27.182L0.598083 29.3834L17.9022 29.4005C21 29.4407 22.6063 26.3374 22.8208 22.9659L29.5958 29.3867L35.462 29.3836L27.3479 21.7687L34.035 14.6713L29.0682 14.6675C28.2878 14.6668 28.0819 15.0944 26.8224 16.4706L22.8016 21.1354C22.5169 17.749 20.8487 14.6134 17.8942 14.633L3.40782 14.7298L3.44384 23.8213L7.86953 23.8387Z" fill="#ED1C24"/>
</svg>
