<svg width="500" height="334" viewBox="0 0 500 334" fill="none" xmlns="http://www.w3.org/2000/svg">
<path d="M444.632 100.183L438.252 131.079L434.148 127.075L427.159 132.057L421.821 125.429L409.844 134.136L399.615 117.022L388.199 123.707L383.674 117.465L369.18 125.632L364.819 116.297L374.977 67.0894L429.447 78.3354L444.632 100.183Z" fill="#EBEBEB"/>
<path d="M429.447 78.3359L444.633 100.181L425.743 96.2806L429.447 78.3359Z" fill="#DBDBDB"/>
<path d="M436.895 137.254L427.538 182.584L354.175 167.441L363.461 122.472L367.823 131.807L382.317 123.64L386.843 129.883L398.259 123.197L408.487 140.311L420.465 131.604L425.803 138.231L432.791 133.251L436.895 137.254Z" fill="#EBEBEB"/>
<path d="M331.889 131.942L257.122 136.569L251.183 40.5913L306.697 37.156L327.081 54.2527L331.889 131.942Z" fill="#EBEBEB"/>
<path d="M306.697 37.156L327.081 54.2527L307.829 55.444L306.697 37.156Z" fill="#DBDBDB"/>
<path d="M285.971 101.731L285.681 99.5667C284.927 95.0794 286.156 90.0614 290.055 84.8107C293.57 80.1681 295.478 76.7894 295.267 73.0274C295.029 68.7627 292.193 66.0694 286.921 66.2807C283.91 66.4494 280.622 67.6401 278.62 69.3461L276.318 64.1901C278.965 62.0287 283.657 60.4241 288.088 60.1754C297.704 59.6367 302.384 65.3307 302.74 71.6847C303.059 77.3714 300.111 81.6461 296.364 86.6374C292.929 91.1914 291.797 94.9461 292.287 99.1961L292.492 101.365L285.971 101.731ZM284.787 113.541C284.613 110.447 286.582 108.155 289.508 107.991C292.435 107.827 294.563 109.889 294.737 112.983C294.901 115.91 293.104 118.275 290.01 118.449C287.084 118.613 284.951 116.467 284.787 113.541Z" fill="#DBDBDB"/>
<path d="M98.9872 85.4093L91.4632 81.9973L90.4199 84.3013C90.1132 84.9786 89.4486 85.4113 88.7052 85.444C88.2946 85.462 87.8839 85.5026 87.4752 85.5646C86.7419 85.6766 86.0072 85.3813 85.5752 84.7786L84.1026 82.7226L77.3846 87.536L78.8572 89.5913C79.2892 90.1946 79.3326 90.9846 78.9912 91.6433C78.8006 92.01 78.6306 92.386 78.4812 92.7693C78.2112 93.4627 77.5879 93.9526 76.8479 94.0253L74.3306 94.272L75.1419 102.493L77.6679 102.242C78.4086 102.168 79.1092 102.537 79.5112 103.163C79.6206 103.333 79.7346 103.501 79.8526 103.667C79.9712 103.832 80.0932 103.994 80.2192 104.152C80.6806 104.731 80.8046 105.509 80.4992 106.184L79.4486 108.505L86.9726 111.917L88.0206 109.608C88.3279 108.931 88.9939 108.499 89.7372 108.467C90.1466 108.449 90.5552 108.409 90.9626 108.348C91.6952 108.237 92.4286 108.532 92.8606 109.135L94.3339 111.191L101.052 106.378L99.5786 104.321C99.1472 103.719 99.1032 102.929 99.4439 102.271C99.6332 101.906 99.8019 101.531 99.9499 101.149C100.219 100.456 100.842 99.9647 101.583 99.8913L104.105 99.6413L103.294 91.42L100.77 91.6693C100.032 91.742 99.3332 91.3746 98.9326 90.75C98.8226 90.5793 98.7079 90.41 98.5886 90.2426C98.4699 90.0773 98.3479 89.9153 98.2219 89.7573C97.7579 89.1753 97.6339 88.3933 97.9412 87.7153L98.9872 85.4093ZM94.7192 93.0153C96.8959 96.0533 96.1979 100.277 93.1606 102.453C90.1226 104.63 85.8939 103.936 83.7172 100.898C81.5406 97.86 82.2399 93.6273 85.2779 91.4506C88.3152 89.2746 92.5426 89.978 94.7192 93.0153Z" fill="#EBEBEB"/>
<path d="M438.923 194.475L433.909 197.368L434.796 198.902C435.057 199.353 435.032 199.908 434.747 200.345C434.59 200.586 434.445 200.836 434.314 201.094C434.079 201.557 433.611 201.855 433.091 201.855H431.319V207.645H433.091C433.611 207.645 434.079 207.943 434.314 208.406C434.445 208.664 434.59 208.914 434.747 209.155C435.032 209.592 435.057 210.147 434.796 210.598L433.909 212.132L438.923 215.025L439.81 213.483C440.07 213.031 440.566 212.783 441.087 212.809C441.228 212.817 441.37 212.82 441.513 212.82C441.655 212.82 441.797 212.817 441.939 212.809C442.457 212.783 442.951 213.029 443.21 213.479L444.103 215.024L449.115 212.131L448.228 210.593C447.967 210.141 447.993 209.586 448.279 209.15C448.435 208.91 448.58 208.661 448.711 208.404C448.947 207.941 449.414 207.644 449.933 207.644H451.705V201.855H449.933C449.414 201.855 448.947 201.557 448.711 201.095C448.58 200.838 448.435 200.589 448.279 200.349C447.993 199.912 447.968 199.357 448.228 198.905L449.115 197.367L444.103 194.474L443.215 196.013C442.955 196.463 442.461 196.711 441.941 196.685C441.799 196.677 441.657 196.674 441.512 196.674C441.369 196.674 441.227 196.677 441.086 196.685C440.565 196.711 440.069 196.463 439.809 196.011L438.923 194.475ZM441.513 200.009C444.131 200.009 446.252 202.13 446.252 204.748C446.252 207.366 444.131 209.491 441.513 209.491C438.895 209.491 436.77 207.366 436.77 204.748C436.77 202.13 438.895 200.009 441.513 200.009Z" fill="#EBEBEB"/>
<path d="M114.202 60.7753L109.605 64.2907L110.681 65.6973C110.998 66.1113 111.045 66.6647 110.819 67.134C110.694 67.3933 110.583 67.66 110.487 67.9333C110.313 68.4227 109.887 68.7787 109.372 68.846L107.615 69.0747L108.363 74.816L110.119 74.5873C110.635 74.52 111.137 74.7553 111.43 75.184C111.593 75.4233 111.769 75.6527 111.956 75.8713C112.295 76.2673 112.391 76.8147 112.191 77.2953L111.51 78.9314L116.854 81.1527L117.535 79.51C117.735 79.0287 118.194 78.718 118.714 78.6767C118.855 78.6653 118.997 78.6507 119.138 78.6327C119.279 78.614 119.42 78.5927 119.559 78.5667C120.069 78.4733 120.591 78.6547 120.906 79.0667L121.991 80.484L126.589 76.9687L125.511 75.5573C125.194 75.1433 125.148 74.5893 125.375 74.12C125.499 73.8613 125.61 73.596 125.707 73.324C125.881 72.8353 126.306 72.48 126.821 72.4127L128.578 72.184L127.831 66.4427L126.073 66.6714C125.559 66.7387 125.057 66.504 124.763 66.0753C124.601 65.8373 124.425 65.6093 124.239 65.3913C123.899 64.9953 123.802 64.448 124.002 63.9667L124.683 62.3267L119.339 60.1053L118.657 61.746C118.457 62.226 117.999 62.5353 117.481 62.576C117.339 62.5873 117.197 62.602 117.053 62.6207C116.912 62.6393 116.771 62.6607 116.632 62.686C116.119 62.78 115.595 62.5974 115.278 62.1827L114.202 60.7753ZM117.485 65.9287C120.081 65.5907 122.457 67.42 122.795 70.016C123.133 72.612 121.305 74.9934 118.709 75.3314C116.113 75.6694 113.731 73.836 113.393 71.24C113.055 68.644 114.889 66.2667 117.485 65.9287Z" fill="#EBEBEB"/>
<path d="M79.8792 211.189C80.1419 204.737 80.0365 198.274 79.6139 191.832C78.7419 178.545 76.5545 165.361 73.5505 152.396C71.8599 145.098 69.7772 137.924 67.6079 130.757C67.5425 130.541 67.1972 130.602 67.2572 130.827C73.9665 156.091 79.4712 182.163 79.0925 208.425C78.9865 215.775 78.1359 222.993 77.4379 230.297C77.4192 230.492 77.7405 230.57 77.7852 230.369C79.1692 224.12 79.6192 217.571 79.8792 211.189Z" fill="#EBEBEB"/>
<path d="M67.2566 130.828C67.2566 130.828 57.0926 156.627 59.3679 162.691C61.6439 168.755 66.3353 170.048 66.3353 170.048C66.3353 170.048 60.1166 178.927 64.4619 187.254C68.8079 195.581 78.4633 195.188 79.1046 204.63C79.1046 204.63 79.6426 165.15 67.2566 130.828Z" fill="#EBEBEB"/>
<path d="M77.9999 188.328C78.0126 188.285 78.0092 188.239 77.9892 188.193C76.5619 170.651 73.4499 153.163 68.1306 136.295C68.1152 136.245 68.0332 136.261 68.0466 136.313C70.0606 143.859 71.8526 151.447 73.3839 159.075C72.0639 157.716 70.3372 156.935 68.5319 156.37C68.4979 156.359 68.4812 156.408 68.5132 156.422C70.3932 157.235 72.1939 158.177 73.5226 159.769C73.8192 161.265 74.1099 162.761 74.3859 164.259C72.1146 161.72 68.9646 160.461 65.8126 159.263C65.7679 159.247 65.7446 159.315 65.7879 159.333C69.0706 160.669 72.3406 162.391 74.5646 165.22C75.3399 169.501 76.0186 173.798 76.6059 178.107C74.9452 176.373 72.8959 175.207 70.5452 174.634C70.4746 174.617 70.4352 174.721 70.5066 174.742C72.9219 175.437 74.9992 176.789 76.6532 178.679C76.6652 178.693 76.6779 178.699 76.6912 178.708C76.8946 180.224 77.0866 181.742 77.2666 183.262C75.9879 182.171 74.5746 181.341 73.0186 180.699C72.9772 180.683 72.9552 180.747 72.9952 180.764C74.5759 181.437 75.9979 182.407 77.2499 183.58C77.2679 183.597 77.2859 183.595 77.3039 183.601C77.4732 185.046 77.6419 186.491 77.7879 187.939C75.4579 185.131 72.5766 183.099 69.1672 181.784C69.1006 181.758 69.0666 181.86 69.1306 181.888C72.4452 183.329 75.3672 185.613 77.6266 188.425C77.6886 188.503 77.7692 188.515 77.8406 188.493C78.0606 190.713 78.2572 192.936 78.4199 195.164C78.4219 195.195 78.4719 195.197 78.4706 195.167C78.3432 192.886 78.1839 190.607 77.9999 188.328Z" fill="white"/>
<path d="M69.8332 153.806C68.0705 152.594 65.8305 152.077 63.7265 151.902C63.6759 151.898 63.6719 151.972 63.7212 151.979C65.9099 152.304 67.7485 153.096 69.7592 153.951C69.8465 153.989 69.9092 153.858 69.8332 153.806Z" fill="white"/>
<path d="M71.0673 181.119C69.6726 180.282 68.0813 179.809 66.4833 179.551C66.4273 179.543 66.4227 179.629 66.4773 179.638C68.1 179.932 69.5373 180.509 71.012 181.228C71.0746 181.259 71.1266 181.155 71.0673 181.119Z" fill="white"/>
<path d="M106.599 163.111C102.36 166.091 98.2925 169.528 94.8352 173.395C91.1498 177.516 88.4618 182.195 86.5845 187.387C82.7385 198.023 80.6305 209.546 80.4385 220.851C80.3305 227.188 80.8945 233.476 82.2505 239.67C82.2998 239.895 82.6365 239.831 82.6025 239.604C80.9452 228.706 81.0058 217.585 82.7865 206.708C84.5338 196.035 87.2758 184.424 94.0598 175.751C97.7538 171.028 102.36 167.312 106.913 163.472C107.151 163.27 106.845 162.938 106.599 163.111Z" fill="#EBEBEB"/>
<path d="M81.9338 213.166C81.9338 213.166 85.4245 207.288 90.5092 202.204C95.5938 197.121 99.8765 193.508 100.537 190.146C101.199 186.784 95.4438 184.308 95.4438 184.308C95.4438 184.308 102.48 185.572 104.406 182.618C106.331 179.666 107.261 162.562 107.261 162.562C107.261 162.562 94.4598 171.701 88.4952 184.512C82.5312 197.324 81.9338 213.166 81.9338 213.166Z" fill="#EBEBEB"/>
<path d="M102.831 166.947C97.4452 172.237 92.0246 177.874 88.8526 184.824C87.7652 187.207 86.8399 189.678 86.0252 192.196C86.0232 192.2 86.0232 192.204 86.0212 192.207C85.8579 192.712 85.6919 193.217 85.5379 193.726C85.5226 193.751 85.5146 193.779 85.5119 193.809C83.9439 199 82.8352 204.367 81.8752 209.61C81.8692 209.644 81.9206 209.662 81.9272 209.627C82.4786 206.958 83.0872 204.264 83.7666 201.577C83.7906 201.578 83.8166 201.573 83.8432 201.562C84.9319 201.104 86.0272 200.818 87.2026 200.709C87.2792 200.702 87.2732 200.569 87.1952 200.573C86.0612 200.628 84.9506 200.826 83.8726 201.179C84.4926 198.756 85.1666 196.34 85.9246 193.96C88.3959 193.354 90.9752 193.028 93.5166 192.967C93.5426 192.966 93.5472 192.927 93.5199 192.926C90.9579 192.806 88.5499 193.027 86.0546 193.56C86.1866 193.151 86.3239 192.745 86.4606 192.338C88.1292 191.958 89.8052 191.638 91.5126 191.482C91.5432 191.479 91.5406 191.426 91.5099 191.427C89.8379 191.472 88.1899 191.648 86.5632 192.028C87.2599 189.968 88.0126 187.936 88.8472 185.956C89.5379 184.319 90.3592 182.764 91.2639 181.264C92.6326 180.954 93.9592 180.659 95.3619 180.533C95.4006 180.53 95.3966 180.468 95.3586 180.465C94.0852 180.382 92.7592 180.478 91.5272 180.844C92.2006 179.756 92.9079 178.691 93.6652 177.659C96.5359 177.023 99.4459 176.433 102.383 176.984C102.433 176.994 102.452 176.908 102.402 176.896C99.6066 176.16 96.8319 176.585 94.0506 177.135C94.3539 176.731 94.6646 176.332 94.9779 175.936C96.7399 175.391 98.4926 175.127 100.341 175.093C100.379 175.092 100.385 175.038 100.346 175.034C98.6586 174.872 96.9759 175.036 95.3452 175.478C97.7186 172.529 100.34 169.76 102.931 167.021C103.053 166.896 102.959 166.822 102.831 166.947Z" fill="white"/>
<path d="M102.689 178.606C101.846 178.516 100.989 178.422 100.143 178.517C100.04 178.528 100.049 178.696 100.152 178.698C100.995 178.723 101.837 178.66 102.68 178.706C102.745 178.71 102.753 178.612 102.689 178.606Z" fill="white"/>
<path d="M93.4745 195.198C92.1292 195.181 90.7858 195.543 89.5292 195.99C89.4978 196.001 89.5152 196.054 89.5478 196.046C90.8505 195.736 92.1685 195.61 93.4845 195.392C93.5925 195.375 93.5872 195.199 93.4745 195.198Z" fill="white"/>
<path d="M90.7131 189.466C90.1671 189.437 89.5764 189.533 89.0384 189.617C88.9831 189.626 88.9864 189.716 89.0438 189.717C89.5878 189.726 90.1864 189.741 90.7224 189.638C90.8171 189.62 90.8131 189.471 90.7131 189.466Z" fill="white"/>
<path d="M44.4086 181.262C48.5279 182.694 52.6139 184.535 56.3059 186.865C60.2412 189.349 63.4979 192.514 66.2172 196.281C71.7879 204.001 76.1572 212.839 78.9259 221.943C80.4779 227.047 81.4752 232.265 81.8092 237.591C81.8212 237.785 81.5339 237.811 81.5092 237.619C80.3312 228.416 77.7119 219.431 73.7566 211.039C69.8759 202.805 64.9732 194.043 57.4779 188.591C53.3966 185.623 48.8106 183.681 44.2379 181.625C43.9986 181.518 44.1692 181.179 44.4086 181.262Z" fill="#EBEBEB"/>
<path d="M75.9392 216.069C75.9392 216.069 71.7552 212.119 66.4659 209.18C61.1759 206.241 56.8752 204.307 55.5632 201.739C54.2512 199.171 58.3359 195.837 58.3359 195.837C58.3359 195.837 52.9332 198.486 50.6926 196.541C48.4519 194.597 43.7466 180.97 43.7466 180.97C43.7466 180.97 56.2186 185.407 64.0059 194.397C71.7939 203.387 75.9392 216.069 75.9392 216.069Z" fill="#EBEBEB"/>
<path d="M75.2898 213.259C69.0518 201.55 60.7285 190.958 49.3232 183.967C49.3178 183.963 49.3132 183.971 49.3178 183.974C52.3205 185.887 55.0872 188.094 57.6658 190.507C55.3572 190.443 53.0072 190.811 50.9605 191.922C50.9152 191.947 50.9478 192.008 50.9945 191.992C53.2758 191.22 55.4672 190.713 57.8938 190.826C57.9272 190.827 57.9485 190.81 57.9718 190.797C58.3765 191.181 58.7758 191.571 59.1712 191.964C57.9712 192.015 56.7572 192.185 55.5878 192.439C55.5565 192.446 55.5652 192.495 55.5972 192.489C56.8625 192.244 58.0978 192.159 59.3818 192.177C61.4718 194.277 63.4192 196.523 65.2645 198.856C64.4312 198.735 63.5578 198.805 62.7592 199.038C62.6998 199.055 62.7152 199.141 62.7772 199.133C63.6858 199.018 64.5498 199.033 65.4518 199.096C65.7932 199.531 66.1385 199.963 66.4732 200.403C63.9085 200.248 61.3958 200.495 58.9038 201.139C58.8672 201.148 58.8772 201.205 58.9152 201.197C61.4858 200.693 64.0778 200.531 66.6898 200.692C67.0078 201.114 67.3092 201.548 67.6212 201.975C66.0912 201.928 64.6072 202.119 63.1152 202.491C63.0585 202.505 63.0745 202.594 63.1325 202.581C64.6672 202.231 66.2278 202.143 67.7965 202.217C69.1385 204.066 70.4238 205.956 71.6592 207.869C71.0052 207.734 70.3185 207.807 69.6812 207.987C69.6472 207.997 69.6565 208.045 69.6918 208.041C70.4258 207.955 71.1112 208.05 71.8318 208.143C72.9425 209.872 74.0165 211.619 75.0452 213.375C75.1332 213.525 75.3725 213.414 75.2898 213.259Z" fill="white"/>
<path d="M65.5866 203.547C64.3673 203.442 63.1279 203.633 61.9633 203.99C61.9299 204 61.9379 204.051 61.9739 204.044C63.1733 203.823 64.3619 203.74 65.5773 203.675C65.6566 203.671 65.6719 203.555 65.5866 203.547Z" fill="white"/>
<path d="M54.7074 189.278C54.156 189.215 53.5807 189.287 53.036 189.375C52.9714 189.386 52.9914 189.481 53.0554 189.475C53.6047 189.416 54.1467 189.437 54.6967 189.42C54.786 189.417 54.8007 189.289 54.7074 189.278Z" fill="white"/>
<path d="M92.026 254.787H63.8733L67.8873 225.382L68.9133 217.843H86.986L88.0113 225.382L92.026 254.787Z" fill="#DBDBDB"/>
<path d="M88.0112 225.382H67.8872L68.9132 217.843H86.9859L88.0112 225.382Z" fill="#C7C7C7"/>
<path d="M89.5699 215.228H66.3286V221.613H89.5699V215.228Z" fill="#DBDBDB"/>
<path d="M45.9761 254.787L96.6487 254.625L147.321 254.566L248.667 254.454L350.012 254.565L400.685 254.624L451.357 254.787L400.685 254.95L350.012 255.009L248.667 255.119L147.321 255.008L96.6487 254.949L45.9761 254.787Z" fill="#263238"/>
<path d="M250 304.476C355.575 304.476 441.161 295.098 441.161 283.529C441.161 271.961 355.575 262.583 250 262.583C144.424 262.583 58.8386 271.961 58.8386 283.529C58.8386 295.098 144.424 304.476 250 304.476Z" fill="#EBEBEB"/>
<path d="M205.501 280.058C203.947 280.584 159.404 280.741 157.701 279.674C157.053 279.272 156.653 272.786 156.39 264.936C156.333 263.24 156.285 261.49 156.246 259.711L152.634 235.954L182.411 235.763L185.221 259.526L185.107 264.752C185.107 264.752 202.188 272.32 203.929 273.692C205.663 275.062 207.055 279.532 205.501 280.058Z" fill="#EB9481"/>
<path d="M205.501 280.058C203.947 280.584 159.404 280.741 157.701 279.674C156.915 279.181 156.485 269.709 156.246 259.711L185.221 259.525L185.107 264.752C185.107 264.752 202.188 272.32 203.929 273.691C205.663 275.062 207.055 279.532 205.501 280.058Z" fill="white"/>
<path d="M205.501 280.058C203.947 280.584 159.404 280.741 157.701 279.674C157.053 279.272 156.653 272.786 156.39 264.936L185.107 264.752C185.107 264.752 202.188 272.32 203.929 273.691C205.663 275.062 207.055 279.532 205.501 280.058Z" fill="#A6A6A6"/>
<path d="M204.856 278.279C197.389 278.122 167.256 278.193 159.863 278.605C159.803 278.608 159.803 278.649 159.863 278.652C167.261 278.969 197.392 278.654 204.857 278.401C205.014 278.396 205.013 278.282 204.856 278.279Z" fill="#263238"/>
<path d="M201.059 272.098C199.289 272.032 197.561 272.88 196.599 273.938C195.675 274.954 194.886 276.382 194.944 277.93C194.946 277.974 195.028 277.976 195.034 277.93C195.45 275.006 198.099 272.43 201.059 272.192C201.12 272.187 201.12 272.101 201.059 272.098Z" fill="#263238"/>
<path d="M188.007 265.484C185.018 265.454 181.557 266.52 179.708 268.971C179.637 269.066 179.772 269.166 179.861 269.12C182.557 267.718 185.122 266.672 188.059 265.852C188.267 265.794 188.221 265.486 188.007 265.484Z" fill="#263238"/>
<path d="M190.317 266.376C187.329 266.344 183.867 267.412 182.019 269.862C181.947 269.958 182.083 270.058 182.171 270.012C184.868 268.61 187.433 267.563 190.369 266.744C190.577 266.686 190.531 266.378 190.317 266.376Z" fill="#263238"/>
<path d="M192.627 267.267C189.639 267.236 186.177 268.303 184.329 270.754C184.257 270.848 184.393 270.949 184.481 270.903C187.178 269.501 189.743 268.454 192.68 267.635C192.887 267.577 192.841 267.269 192.627 267.267Z" fill="#263238"/>
<path d="M194.937 268.158C191.949 268.127 188.488 269.194 186.639 271.645C186.567 271.74 186.703 271.84 186.792 271.794C189.489 270.392 192.053 269.346 194.99 268.526C195.197 268.468 195.151 268.16 194.937 268.158Z" fill="#263238"/>
<path d="M161.739 271.506C158.387 271.528 158.414 276.739 161.773 276.717C165.125 276.696 165.098 271.485 161.739 271.506Z" fill="#263238"/>
<path d="M191.209 257.498C189.691 256.249 187.79 257.482 186.862 258.788C185.359 260.902 184.332 263.863 184.174 266.44C184.17 266.503 184.218 266.528 184.267 266.525C184.331 266.739 184.585 266.918 184.805 266.764C186.927 265.285 189.38 263.967 190.985 261.88C191.923 260.661 192.643 258.68 191.209 257.498ZM187.564 263.863C186.538 264.616 185.481 265.314 184.483 266.104C185.011 264.613 185.473 263.107 186.151 261.67C186.475 260.985 186.821 260.286 187.236 259.65C187.882 258.661 190.807 256.153 191.115 259.403C191.285 261.196 188.788 262.965 187.564 263.863Z" fill="#263238"/>
<path d="M176.752 267.573C179.355 267.964 182.037 267.213 184.592 266.808C184.857 266.766 184.916 266.461 184.814 266.262C184.852 266.23 184.869 266.178 184.823 266.136C182.923 264.388 180.129 262.967 177.58 262.486C176.006 262.188 173.781 262.618 173.553 264.57C173.339 266.417 175.232 267.345 176.752 267.573ZM174.941 265.878C172.91 263.322 176.757 263.102 177.908 263.367C178.648 263.538 179.381 263.801 180.09 264.07C181.575 264.636 182.952 265.401 184.367 266.109C183.099 266.231 181.853 266.461 180.592 266.63C179.089 266.832 176.061 267.288 174.941 265.878Z" fill="#263238"/>
<path d="M108.879 126.135C108.879 126.135 143.459 184.962 144.385 189.092C145.807 195.439 153.349 258.116 153.349 258.116L189.33 257.468C189.33 257.468 183.129 202.207 177.255 184.001C173.025 170.887 142.507 127.395 142.507 127.395L108.879 126.135Z" fill="#37474F"/>
<path d="M186.058 251.951C180.891 251.914 162.58 251.707 155.702 252.349C155.649 252.354 155.651 252.441 155.703 252.448C158.071 252.788 180.895 252.259 186.06 252.093C186.157 252.09 186.155 251.952 186.058 251.951Z" fill="#263238"/>
<path d="M114.781 131.534C117.047 135.088 119.438 138.568 121.755 142.091C124.073 145.616 126.382 149.146 128.661 152.695C133.217 159.789 137.653 166.957 142.009 174.17C144.051 177.552 145.997 180.966 147.399 184.656C148.789 188.311 149.735 192.114 150.435 195.947C151.14 199.809 151.604 203.708 152.043 207.605C152.509 211.755 152.969 215.906 153.433 220.056C154.381 228.549 155.329 237.042 156.277 245.534C156.393 246.576 156.507 247.617 156.611 248.66C156.627 248.813 156.353 248.844 156.334 248.69C155.275 240.252 154.396 231.788 153.434 223.338C152.955 219.131 152.477 214.924 151.998 210.718C151.553 206.806 151.129 202.89 150.523 198.999C149.926 195.177 149.152 191.37 147.989 187.671C146.773 183.806 145.052 180.177 143.014 176.662C138.844 169.471 134.432 162.402 130.018 155.352C125.566 148.242 121.077 141.15 116.421 134.164C115.846 133.302 115.266 132.444 114.67 131.595C114.623 131.528 114.737 131.465 114.781 131.534Z" fill="#263238"/>
<path d="M120.215 283.528C118.574 283.427 76.2173 266.265 75.0366 264.639C74.9973 264.585 74.9739 264.478 74.9719 264.326C74.9799 262.869 77.9133 257.771 80.3646 251.082C80.5179 250.654 81.6113 248.669 83.1286 245.992C87.2993 238.639 94.6793 226.044 94.6793 226.044L122.365 237.044L109.113 256.881L107.051 261.682C107.051 261.682 120.045 275.111 121.142 277.032C122.233 278.954 121.849 283.621 120.215 283.528Z" fill="#EB9481"/>
<path d="M120.215 283.528C118.574 283.427 76.2173 266.265 75.0366 264.639C74.9973 264.585 74.9739 264.478 74.9719 264.326C74.9799 262.869 77.9133 257.771 80.3646 251.082C80.5179 250.654 81.6113 248.669 83.1286 245.992L109.114 256.881L107.051 261.682C107.051 261.682 120.045 275.111 121.143 277.032C122.233 278.954 121.849 283.621 120.215 283.528Z" fill="white"/>
<path d="M120.212 283.525C118.574 283.429 76.216 266.265 75.038 264.637C74.588 264.022 76.482 258.237 80.362 251.083L107.051 261.686C107.051 261.686 120.045 275.109 121.145 277.033C122.236 278.954 121.85 283.62 120.212 283.525Z" fill="#A6A6A6"/>
<path d="M120.281 281.633C113.419 278.687 85.4595 267.449 78.4515 265.057C78.3948 265.037 78.3795 265.075 78.4341 265.1C85.1728 268.169 113.222 279.181 120.236 281.747C120.384 281.801 120.426 281.695 120.281 281.633Z" fill="#263238"/>
<path d="M119.081 274.48C117.464 273.754 115.545 273.891 114.256 274.511C113.018 275.106 111.751 276.134 111.225 277.591C111.209 277.633 111.285 277.664 111.309 277.624C112.791 275.07 116.213 273.676 119.047 274.566C119.103 274.584 119.137 274.504 119.081 274.48Z" fill="#263238"/>
<path d="M109.463 263.452C106.704 262.302 103.095 261.993 100.462 263.571C100.36 263.632 100.449 263.776 100.548 263.767C103.574 263.479 106.343 263.471 109.373 263.813C109.587 263.837 109.66 263.535 109.463 263.452Z" fill="#263238"/>
<path d="M111.27 265.145C108.511 263.995 104.903 263.685 102.269 265.263C102.167 265.325 102.256 265.469 102.355 265.459C105.381 265.171 108.151 265.163 111.181 265.505C111.395 265.529 111.467 265.227 111.27 265.145Z" fill="#263238"/>
<path d="M113.077 266.838C110.319 265.688 106.71 265.379 104.077 266.957C103.975 267.018 104.063 267.162 104.163 267.153C107.188 266.865 109.958 266.856 112.988 267.199C113.201 267.223 113.275 266.92 113.077 266.838Z" fill="#263238"/>
<path d="M114.884 268.531C112.125 267.381 108.517 267.071 105.884 268.649C105.782 268.711 105.87 268.855 105.97 268.845C108.996 268.557 111.765 268.549 114.795 268.891C115.009 268.915 115.082 268.613 114.884 268.531Z" fill="#263238"/>
<path d="M82.8542 259.181C79.7382 257.943 77.8089 262.783 80.9302 264.023C84.0469 265.261 85.9762 260.421 82.8542 259.181Z" fill="#263238"/>
<path d="M115.427 257.25C114.489 255.523 112.264 255.952 110.914 256.814C108.728 258.21 106.664 260.57 105.552 262.898C105.524 262.956 105.56 262.997 105.606 263.012C105.586 263.235 105.754 263.496 106.016 263.436C108.538 262.861 111.306 262.56 113.577 261.228C114.902 260.45 116.314 258.884 115.427 257.25ZM109.661 261.783C108.427 262.096 107.186 262.346 105.964 262.705C107.013 261.521 108.006 260.298 109.174 259.22C109.731 258.706 110.314 258.189 110.937 257.755C111.907 257.08 115.559 255.852 114.626 258.981C114.111 260.706 111.132 261.41 109.661 261.783Z" fill="#263238"/>
<path d="M98.2462 261.166C100.513 262.505 103.28 262.815 105.801 263.398C106.062 263.458 106.231 263.199 106.212 262.975C106.258 262.961 106.294 262.919 106.267 262.861C105.161 260.529 103.105 258.164 100.923 256.761C99.5748 255.895 97.3515 255.458 96.4088 257.182C95.5162 258.814 96.9228 260.385 98.2462 261.166ZM97.2042 258.916C96.2808 255.784 99.9288 257.023 100.896 257.701C101.518 258.137 102.099 258.656 102.655 259.172C103.82 260.253 104.809 261.479 105.855 262.666C104.634 262.304 103.394 262.049 102.16 261.733C100.691 261.355 97.7128 260.643 97.2042 258.916Z" fill="#263238"/>
<path d="M111.25 255.771L80.26 243.257C80.26 243.257 118.684 186.761 118.969 182.556C119.22 178.831 102.343 146.417 101.678 136.97C100.96 126.775 105.869 118.885 111.263 113.988L143.233 127.578C143.233 127.578 139.859 132.976 134.544 135.981C134.544 135.981 150.939 173.448 150.009 184.968C149.074 196.551 111.25 255.771 111.25 255.771Z" fill="#37474F"/>
<path d="M112.627 249.878C108.145 247.952 109.459 248.441 104.955 246.564C102.752 245.646 88.2659 239.624 86.0606 239.128C86.0119 239.118 85.9806 239.194 86.0233 239.22C87.9513 240.401 102.539 246.169 104.76 247.045C109.298 248.835 108.015 248.272 112.573 250.01C112.659 250.042 112.711 249.914 112.627 249.878Z" fill="#263238"/>
<path d="M139.807 135.296C136.477 136.012 133.209 137.188 130.071 138.453C129.947 138.503 130.005 138.686 130.137 138.647C133.405 137.693 136.729 136.802 139.937 135.674C140.189 135.586 140.063 135.24 139.807 135.296Z" fill="#263238"/>
<path d="M136.015 133.98C135.699 134.529 135.432 135.108 135.193 135.692C135.009 136.146 134.771 136.633 134.774 137.128C134.775 137.224 134.904 137.248 134.963 137.189C135.335 136.824 135.532 136.29 135.767 135.835C136.039 135.308 136.323 134.785 136.579 134.25C136.749 133.895 136.209 133.641 136.015 133.98Z" fill="#263238"/>
<path d="M136.403 130.974C136.599 130.482 136.796 129.991 137.003 129.504C137.217 128.999 137.465 128.502 137.64 127.982C137.667 127.9 137.797 127.956 137.765 128.038C137.569 128.531 137.442 129.056 137.285 129.563C137.128 130.072 136.962 130.577 136.794 131.082C136.481 132.023 136.097 132.956 135.693 133.864C136.216 133.858 136.754 133.834 137.229 133.598C137.745 133.34 138.058 132.792 138.312 132.297C138.594 131.747 138.853 131.184 139.143 130.638C139.464 130.034 139.819 129.437 140.03 128.783C140.057 128.7 140.184 128.756 140.155 128.838C139.673 130.188 139.2 131.536 138.451 132.78C138.157 133.269 137.919 133.778 137.377 133.969C136.795 134.174 136.158 134.134 135.552 134.09C135.477 134.111 135.381 134.063 135.407 133.972C135.693 132.966 136.015 131.946 136.403 130.974Z" fill="#263238"/>
<path d="M135.043 137.201C136.179 139.609 137.178 142.009 138.24 144.409C139.278 146.755 140.251 149.127 141.194 151.511C143.101 156.329 144.809 161.235 146.307 166.195C147.048 168.65 147.731 171.122 148.348 173.611C148.967 176.106 149.571 178.627 149.828 181.189C150.085 183.76 149.902 186.302 149.186 188.788C148.459 191.31 147.502 193.513 146.365 195.872C145.67 197.314 145.431 197.119 145.767 196.391C146.721 194.327 149.22 188.068 149.039 182.806C148.951 180.267 148.43 177.767 147.857 175.301C147.271 172.783 146.611 170.283 145.89 167.8C144.47 162.909 142.783 158.114 141.048 153.327C140.076 150.645 139.033 147.991 138.046 145.315C137.052 142.619 136.027 140.193 134.924 137.249C134.895 137.171 135.008 137.126 135.043 137.201Z" fill="#263238"/>
<path d="M111.513 129.245C112.069 129.04 112.839 129.38 113.405 129.474C114.131 129.596 114.865 129.67 115.601 129.696C116.326 129.72 117.057 129.691 117.779 129.62C118.501 129.55 119.238 129.461 119.865 129.069C120.923 128.409 121.808 127.246 122.525 126.245C123.312 125.144 124.129 123.879 124.599 122.604C124.627 122.526 124.74 122.58 124.715 122.656C124.482 123.4 124.309 124.149 124.012 124.875C123.733 125.558 123.372 126.212 122.989 126.841C122.275 128.017 121.455 129.272 120.229 129.972C118.943 130.706 117.287 130.662 115.853 130.579C115.023 130.531 114.197 130.422 113.384 130.25C112.797 130.126 111.81 130.032 111.436 129.517C111.369 129.426 111.404 129.286 111.513 129.245Z" fill="#263238"/>
<path d="M89.1067 237.351C94.2007 229.643 99.2 221.871 104.109 214.043C109.031 206.194 113.863 198.288 118.627 190.343C119.766 188.443 121.083 186.543 121.817 184.439C122.615 182.151 122.161 179.934 121.439 177.695C120.113 173.589 118.463 169.594 116.681 165.667C114.893 161.728 112.969 157.854 111.076 153.966C109.199 150.109 107.201 146.24 105.777 142.187C104.417 138.316 103.899 134.301 104.943 130.286C105.979 126.302 108.219 122.725 110.559 119.386C111.177 118.505 111.805 117.633 112.425 116.753C112.472 116.687 112.573 116.767 112.524 116.834C109.945 120.315 107.431 123.999 105.919 128.085C105.171 130.105 104.687 132.231 104.64 134.388C104.591 136.577 105.003 138.748 105.647 140.833C106.901 144.886 108.881 148.724 110.725 152.532C112.61 156.425 114.546 160.294 116.364 164.219C118.193 168.169 119.904 172.178 121.31 176.299C121.936 178.134 122.634 180.054 122.593 182.02C122.547 184.173 121.519 186.112 120.455 187.927C115.821 195.831 111.009 203.636 106.139 211.396C101.249 219.186 96.2633 226.915 91.2 234.592C90.5613 235.56 89.9213 236.527 89.2807 237.494C89.2013 237.612 89.028 237.471 89.1067 237.351Z" fill="#263238"/>
<path d="M145.009 91.6459C147.894 97.9799 162.471 106.708 169.298 107.646C174.21 108.321 189.124 108.553 194.239 107.772C200.229 106.857 195.652 90.6852 192.111 91.0992C182.378 92.2372 174.113 93.5039 171.515 93.5039C168.343 93.5039 151.174 87.9932 149.105 87.2179C144.042 85.3199 143.372 88.0532 145.009 91.6459Z" fill="#EB9481"/>
<path d="M145.099 93.3226C148.751 98.7286 160.896 107.566 160.896 107.566L162.581 103.832L168.159 91.4886C168.159 91.4886 157.006 87.9693 149.667 86.4013C148.675 86.1886 147.801 86.0613 147.041 86.0273C142.355 85.7746 141.949 88.6719 145.099 93.3226Z" fill="#ED1C24"/>
<path d="M145.099 93.3226C148.751 98.7286 160.896 107.566 160.896 107.566L162.581 103.832C158.053 98.5753 151.062 90.6079 147.041 86.0273C142.355 85.7746 141.949 88.6719 145.099 93.3226Z" fill="#263238"/>
<path d="M158.707 105.071C159.632 102.802 163.755 93.6485 164.779 91.7279C164.85 91.5945 164.951 91.6052 164.894 91.7525C162.284 98.6132 159.817 102.921 158.797 105.101C158.771 105.156 158.683 105.128 158.707 105.071Z" fill="#263238"/>
<path d="M190.325 91.2759C196.249 90.4986 203.576 89.1699 209.781 91.8039C210.998 92.3206 211.439 93.2279 211.439 93.2279C214.241 94.3593 214.548 96.0219 214.548 96.0219C216.835 97.8746 216.916 99.6186 216.916 99.6186C216.916 99.6186 220.191 100.983 219.695 103.099C219.147 105.475 214.654 103.094 211.383 103.296C203.889 103.758 193.365 106.511 191.217 106.859L190.325 91.2759Z" fill="#EB9481"/>
<path d="M203.189 98.2607C205.397 98.1687 207.564 98.0207 209.773 98.228C212.197 98.4553 214.491 99.0813 216.843 99.66C216.917 99.678 216.949 99.578 216.88 99.5487C212.789 97.8273 207.543 97.3753 203.184 98.1607C203.078 98.1793 203.078 98.2653 203.189 98.2607Z" fill="#263238"/>
<path d="M202.253 93.778C204.407 93.8073 208.191 93.884 214.525 96.0906C214.546 96.098 214.565 96.0653 214.543 96.054C210.621 94.0746 206.6 93.3706 202.255 93.6753C202.119 93.6846 202.11 93.776 202.253 93.778Z" fill="#263238"/>
<path d="M201.795 91.3593C205.455 91.5493 207.739 92.1319 211.42 93.2386C211.441 93.2446 211.457 93.2106 211.435 93.2013C207.383 91.5046 205.721 91.348 201.783 91.2333C201.649 91.2286 201.652 91.3519 201.795 91.3593Z" fill="#263238"/>
<path d="M202.388 104.425C201.436 104.871 201.664 105.374 203.485 105.796C205.327 106.227 212.874 106.342 212.608 108.978C212.345 111.624 201.668 111.285 198.689 110.351C195.707 109.423 191.217 106.86 191.217 106.86C193.308 106.507 198.297 105.169 202.388 104.425Z" fill="#EB9481"/>
<path d="M152.935 101.743C152.889 102.882 152.777 104.041 152.617 105.19C152.633 105.149 152.651 105.108 152.666 105.067C152.888 104.467 153.104 103.852 153.373 103.272C153.387 103.241 153.441 103.25 153.435 103.287C153.317 103.916 153.097 104.548 152.857 105.142C152.742 105.426 152.625 105.709 152.503 105.99C152.42 106.502 152.328 107.01 152.225 107.511C152.028 108.464 151.127 112.52 150.923 113.205C150.879 113.349 150.708 113.316 150.719 113.155C150.768 112.408 151.523 108.185 151.676 107.229C151.969 105.393 152.373 103.52 152.864 101.726C152.875 101.683 152.937 101.703 152.935 101.743Z" fill="#263238"/>
<path d="M145.985 132.05C144.207 132.967 141.914 134.387 131.581 132.353C130.935 132.221 130.286 132.063 129.635 131.869C119.945 128.959 108.324 117.564 107.669 116.761C107.669 116.761 123.057 91.8065 142.745 83.9625C145.179 82.9932 149.207 84.8625 151.437 87.1892C152.234 88.0205 153.962 94.1432 153.299 99.1052C152.629 104.06 147.776 131.142 145.985 132.05Z" fill="#ED1C24"/>
<path d="M144.611 98.8779C144.667 99.4139 144.625 99.9359 144.559 100.455C144.481 100.972 144.379 101.486 144.178 101.986C144.121 101.45 144.163 100.928 144.229 100.409C144.308 99.8919 144.41 99.3779 144.611 98.8779Z" fill="white"/>
<path d="M137.899 115.871C137.956 116.407 137.913 116.929 137.848 117.449C137.77 117.966 137.668 118.48 137.467 118.98C137.409 118.444 137.452 117.922 137.518 117.403C137.597 116.885 137.699 116.371 137.899 115.871Z" fill="white"/>
<path d="M126.491 103.029C126.547 103.565 126.505 104.087 126.439 104.605C126.361 105.123 126.259 105.637 126.058 106.137C126.001 105.601 126.043 105.079 126.109 104.559C126.189 104.043 126.291 103.529 126.491 103.029Z" fill="white"/>
<path d="M149.007 115.009C149.063 115.545 149.021 116.067 148.955 116.586C148.877 117.103 148.775 117.617 148.574 118.117C148.517 117.581 148.559 117.059 148.625 116.54C148.704 116.023 148.806 115.509 149.007 115.009Z" fill="white"/>
<path d="M134.357 100.824C134.893 100.767 135.415 100.81 135.935 100.875C136.452 100.953 136.966 101.055 137.466 101.257C136.93 101.314 136.408 101.271 135.889 101.205C135.371 101.127 134.858 101.025 134.357 100.824Z" fill="white"/>
<path d="M121.411 113.102C121.947 113.045 122.469 113.088 122.987 113.153C123.505 113.231 124.019 113.333 124.519 113.535C123.983 113.592 123.461 113.549 122.942 113.483C122.424 113.405 121.911 113.303 121.411 113.102Z" fill="white"/>
<path d="M136.642 126.389C137.178 126.333 137.7 126.375 138.219 126.441C138.736 126.519 139.25 126.621 139.75 126.822C139.214 126.879 138.692 126.837 138.173 126.771C137.656 126.692 137.142 126.59 136.642 126.389Z" fill="white"/>
<path d="M117.419 121.563C117.955 121.506 118.477 121.549 118.997 121.614C119.514 121.692 120.028 121.794 120.528 121.995C119.992 122.053 119.47 122.01 118.951 121.944C118.433 121.865 117.919 121.763 117.419 121.563Z" fill="white"/>
<path d="M144.513 86.9346C145.049 86.8779 145.571 86.9206 146.09 86.9859C146.607 87.0639 147.121 87.1659 147.621 87.3673C147.085 87.4246 146.563 87.3819 146.044 87.3159C145.527 87.2366 145.013 87.1346 144.513 86.9346Z" fill="white"/>
<path d="M140.75 91.1873C140.411 91.6059 140.012 91.9453 139.599 92.2659C139.178 92.5766 138.743 92.8679 138.247 93.0786C138.585 92.6592 138.985 92.3199 139.398 91.9999C139.819 91.6899 140.255 91.3986 140.75 91.1873Z" fill="white"/>
<path d="M120.219 103.271C119.88 103.69 119.481 104.029 119.068 104.35C118.647 104.661 118.212 104.952 117.716 105.163C118.055 104.744 118.454 104.405 118.867 104.085C119.289 103.774 119.724 103.483 120.219 103.271Z" fill="white"/>
<path d="M145.85 108.729C145.511 109.148 145.112 109.487 144.699 109.808C144.278 110.119 143.843 110.41 143.347 110.621C143.685 110.201 144.085 109.862 144.498 109.542C144.919 109.233 145.355 108.941 145.85 108.729Z" fill="white"/>
<path d="M129.252 119.181C128.913 119.6 128.514 119.939 128.101 120.26C127.68 120.571 127.245 120.862 126.749 121.073C127.087 120.653 127.487 120.314 127.9 119.994C128.321 119.685 128.756 119.393 129.252 119.181Z" fill="white"/>
<path d="M152.211 94.446C151.871 94.8647 151.473 95.204 151.059 95.5247C150.639 95.8354 150.203 96.1267 149.707 96.3374C150.045 95.918 150.445 95.5787 150.858 95.2587C151.28 94.9487 151.715 94.6574 152.211 94.446Z" fill="white"/>
<path d="M151.864 106.561C151.445 106.222 151.106 105.823 150.785 105.41C150.474 104.989 150.183 104.554 149.972 104.058C150.392 104.397 150.731 104.796 151.051 105.209C151.36 105.631 151.652 106.066 151.864 106.561Z" fill="white"/>
<path d="M114.867 114.905C114.449 114.565 114.109 114.167 113.789 113.753C113.478 113.333 113.187 112.897 112.976 112.401C113.395 112.74 113.735 113.139 114.055 113.553C114.365 113.973 114.656 114.409 114.867 114.905Z" fill="white"/>
<path d="M147.367 124.837C146.948 124.497 146.609 124.099 146.288 123.685C145.978 123.265 145.686 122.829 145.475 122.333C145.894 122.672 146.234 123.071 146.554 123.485C146.864 123.905 147.155 124.341 147.367 124.837Z" fill="white"/>
<path d="M131.079 96.5353C130.661 96.196 130.321 95.7973 130.001 95.384C129.69 94.9633 129.399 94.528 129.188 94.032C129.607 94.3706 129.947 94.77 130.267 95.1833C130.577 95.604 130.868 96.0393 131.079 96.5353Z" fill="white"/>
<path d="M131.367 130.488C130.949 130.149 130.609 129.75 130.289 129.337C129.978 128.916 129.687 128.481 129.476 127.985C129.895 128.323 130.235 128.723 130.555 129.136C130.864 129.557 131.155 129.992 131.367 130.488Z" fill="white"/>
<path d="M134.136 110.459C133.717 110.12 133.378 109.721 133.057 109.308C132.747 108.887 132.455 108.452 132.245 107.956C132.664 108.295 133.003 108.694 133.323 109.107C133.633 109.528 133.925 109.963 134.136 110.459Z" fill="white"/>
<path d="M147.818 93.832C145.309 93.3653 142.945 88.1727 142.647 84.6793C142.628 84.44 143.822 82.538 145.163 80.158C145.971 78.7107 146.837 77.08 147.519 75.5353C147.658 75.2173 148.48 76.2773 148.48 76.2773L150.266 77.6433L156.169 82.17C156.169 82.17 153.786 84.988 152.613 87.6887C152.517 87.9153 152.447 88.1347 152.399 88.352C152.39 88.3827 152.383 88.4213 152.367 88.4633C152.031 89.7547 150.243 94.2813 147.818 93.832Z" fill="#EB9481"/>
<path d="M152.399 88.3526C152.389 88.3833 152.382 88.4219 152.367 88.4639C152.044 88.3732 151.706 88.2446 151.347 88.0766C144.887 85.0486 147.737 76.3926 147.737 76.3926L150.266 77.6439L156.169 82.1706C156.169 82.1706 153.786 84.9886 152.613 87.6892C152.517 87.9159 152.447 88.1353 152.399 88.3526Z" fill="#263238"/>
<path d="M162.945 63.7206C162.945 63.7206 165.897 65.5952 165.916 68.9272C165.935 72.2599 164.608 75.5199 164.3 75.6366C163.992 75.7532 162.945 63.7206 162.945 63.7206Z" fill="#263238"/>
<path d="M148.295 65.45C146.521 68.9533 146.61 79.984 148.827 82.8266C152.039 86.9473 158.229 88.3673 161.964 84.2933C165.585 80.344 165.214 65.9706 162.652 63.292C158.879 59.3466 150.917 60.2753 148.295 65.45Z" fill="#EB9481"/>
<path d="M157.708 74.2879C157.702 74.2592 157.65 74.3245 157.652 74.3559C157.694 75.1072 157.614 75.9745 156.94 76.2399C156.919 76.2479 156.922 76.2859 156.947 76.2819C157.774 76.1452 157.868 74.9925 157.708 74.2879Z" fill="#263238"/>
<path d="M157.018 73.5178C155.807 73.4538 155.769 75.8812 156.891 75.9405C157.995 75.9985 158.033 73.5712 157.018 73.5178Z" fill="#263238"/>
<path d="M161.821 74.26C161.827 74.2314 161.879 74.2967 161.878 74.3274C161.842 75.0787 161.928 75.9454 162.604 76.206C162.625 76.214 162.622 76.252 162.597 76.248C161.769 76.1174 161.667 74.966 161.821 74.26Z" fill="#263238"/>
<path d="M162.505 73.4852C163.716 73.4126 163.772 75.8392 162.651 75.9066C161.547 75.9732 161.49 73.5459 162.505 73.4852Z" fill="#263238"/>
<path d="M156.258 71.6706C156.59 71.5926 156.883 71.4653 157.203 71.3546C157.565 71.2293 157.865 71.1666 158.106 70.8486C158.235 70.678 158.187 70.3673 158.033 70.2259C157.674 69.8979 157.194 69.9413 156.753 70.0746C156.274 70.2193 155.942 70.4526 155.663 70.866C155.391 71.2666 155.82 71.7733 156.258 71.6706Z" fill="#263238"/>
<path d="M163.347 72.7467C163.011 72.6867 162.711 72.5754 162.386 72.4814C162.019 72.3754 161.715 72.3287 161.458 72.0234C161.32 71.8594 161.351 71.5467 161.497 71.3981C161.838 71.0514 162.321 71.0694 162.768 71.1787C163.254 71.2974 163.598 71.5134 163.899 71.9114C164.191 72.2967 163.789 72.8261 163.347 72.7467Z" fill="#263238"/>
<path d="M155.996 81.4114C156.173 81.59 156.349 81.8354 156.621 81.8627C156.883 81.8887 157.191 81.7754 157.433 81.686C157.457 81.6774 157.48 81.7027 157.465 81.7254C157.265 82.0107 156.851 82.1847 156.504 82.1187C156.165 82.054 156.001 81.7574 155.923 81.4447C155.913 81.4007 155.97 81.3854 155.996 81.4114Z" fill="#263238"/>
<path d="M160.362 78.1973C160.362 78.1973 160.394 79.3226 160.337 79.8453C160.332 79.894 158.857 79.6053 157.268 79.9553C157.03 80.008 157.053 79.814 157.328 79.6873C157.878 79.4333 158.577 79.1953 159.937 79.3413C159.989 79.2006 159.855 77.61 159.939 77.6126C160.227 77.6193 160.769 77.8753 161.097 78.0113C161.098 75.6653 160.723 73.3386 160.76 71.0026C160.763 70.9193 160.884 70.9073 160.9 70.984C161.465 73.3953 161.523 76.0946 161.584 78.5173C161.595 78.8193 160.562 78.3093 160.362 78.1973Z" fill="#263238"/>
<path d="M158.863 79.4454C158.863 79.4454 158.339 80.7641 157.463 81.1181C156.455 81.5261 156.109 80.6134 157.138 79.8074C157.677 79.3847 158.863 79.4454 158.863 79.4454Z" fill="#263238"/>
<path d="M157.813 80.9128C157.699 80.9994 157.586 81.0728 157.459 81.1194C156.533 81.4928 156.166 80.7528 156.913 80.0061C157.42 80.0461 157.973 80.2328 157.813 80.9128Z" fill="#FF99BA"/>
<path d="M147.785 74.8873C149.004 75.2613 150.407 71.5953 150.803 70.186C151.153 68.944 151.556 65.0033 151.615 64.7346C151.675 64.466 156.93 68.2213 160.003 67.3233C163.075 66.4253 165.129 63.668 165.171 62.3806C165.213 61.094 161.399 57.8266 158.097 57.6593C154.796 57.492 150.327 61.688 150.327 61.688C150.327 61.688 151.845 59.8753 151.794 59.7266C151.743 59.578 149.609 60.43 149.217 61.9493C149.217 61.9493 149.639 60.042 149.478 60.0066C149.317 59.9713 147.659 61.6046 148.033 62.8426C148.033 62.8426 146.116 64.5033 145.939 66.324C145.761 68.1453 146.353 74.448 147.785 74.8873Z" fill="#263238"/>
<path d="M162.186 66.682C161.252 67.112 160.316 67.5846 159.283 67.7206C158.167 67.868 157.009 67.588 155.971 67.1893C154.908 66.7826 153.943 66.192 153.065 65.47C152.297 64.8373 151.615 64.074 150.795 63.5106C150.589 63.37 150.351 63.6653 150.478 63.8546C151.724 65.724 153.929 67.2846 156.053 67.9586C158.289 68.6673 160.39 68.1686 162.198 66.7066C162.209 66.6973 162.201 66.6746 162.186 66.682Z" fill="#263238"/>
<path d="M149.061 74.5606C149.061 74.5606 147.169 70.7193 145.462 71.342C143.755 71.9646 144.806 77.2726 146.547 78.2446C148.289 79.2166 149.22 77.622 149.22 77.622L149.061 74.5606Z" fill="#EB9481"/>
<path d="M145.801 72.8566C145.772 72.8493 145.76 72.8899 145.784 72.9046C146.999 73.6286 147.496 74.9346 147.782 76.2539C147.471 75.7153 146.986 75.3719 146.273 75.7319C146.236 75.7506 146.26 75.8086 146.298 75.8066C146.846 75.7746 147.215 75.9253 147.508 76.4053C147.715 76.7453 147.831 77.1526 147.959 77.5279C148.001 77.6533 148.22 77.6233 148.197 77.4833C148.195 77.4726 148.193 77.4619 148.191 77.4513C148.477 75.8039 147.549 73.2953 145.801 72.8566Z" fill="#263238"/>
<path d="M136.559 91.7052C135.256 99.2572 143.41 124.705 148.66 129.459C156.467 136.527 170.903 141.175 176.133 142.687C178.413 143.347 184.72 127.305 182.414 126.248C177.474 123.985 162.127 119.199 160.683 117.969C159.238 116.74 150.419 104.052 146.499 96.7345C141.239 86.9165 137.219 87.8852 136.559 91.7052Z" fill="#EB9481"/>
<path d="M178.53 124.836C178.53 124.836 185.337 126.571 189.735 127.915C192.189 128.664 196.281 130.325 197.832 131.7C200.151 133.758 208.539 143.842 206.137 145.929C203.963 147.818 197.858 138.238 197.858 138.238C197.858 138.238 204.873 147.36 201.838 149.152C198.803 150.945 193.343 139.204 193.343 139.204C193.343 139.204 200.341 148.738 196.919 150.092C194.332 151.114 188.789 140.76 188.789 140.76C188.789 140.76 194.747 148.996 192.132 150.162C189.243 151.452 183.526 142.214 183.526 142.214C176.381 144.06 172.223 142.017 169.439 140.211C168.765 139.772 178.53 124.836 178.53 124.836Z" fill="#EB9481"/>
<path d="M195.634 134.928C196.497 135.969 197.377 137.018 198.145 138.132C198.912 139.247 199.641 140.39 200.301 141.571C201.92 144.468 202.481 146.536 202.433 146.412C201.285 143.481 198.599 139.448 197.832 138.332C197.066 137.22 196.357 136.069 195.591 134.955C195.571 134.927 195.613 134.903 195.634 134.928Z" fill="#263238"/>
<path d="M191.558 137.625C193.037 138.797 196.139 143.162 197.335 146.086C197.385 146.208 197.319 146.198 197.247 146.087C196.309 144.642 192.525 139.04 191.523 137.648C191.508 137.626 191.538 137.609 191.558 137.625Z" fill="#263238"/>
<path d="M187.644 139.312C189.356 141.006 190.793 143.32 191.924 145.994C191.975 146.114 191.879 146.096 191.808 145.982C190.427 143.734 189.36 141.96 187.573 139.371C187.545 139.33 187.604 139.272 187.644 139.312Z" fill="#263238"/>
<path d="M143.979 92.2607C137.892 83.6513 134.255 86.8427 135.475 96.1873C136.617 104.927 139.68 115.338 139.68 115.338L155.041 107.898C155.041 107.898 147.875 97.7707 143.979 92.2607Z" fill="#ED1C24"/>
<path d="M147.699 95.646C147.917 96.1393 148.036 96.6493 148.131 97.1633C148.215 97.68 148.275 98.2 148.235 98.738C148.017 98.2447 147.898 97.7347 147.803 97.2207C147.721 96.7033 147.661 96.1833 147.699 95.646Z" fill="white"/>
<path d="M138.611 100.88C139.104 100.663 139.614 100.544 140.128 100.448C140.645 100.365 141.165 100.305 141.703 100.344C141.209 100.562 140.699 100.681 140.185 100.776C139.669 100.859 139.148 100.918 138.611 100.88Z" fill="white"/>
<path d="M139.007 87.4927C138.811 87.9953 138.535 88.44 138.239 88.8713C137.933 89.2953 137.607 89.706 137.199 90.058C137.394 89.5553 137.671 89.11 137.967 88.6793C138.273 88.2553 138.599 87.8453 139.007 87.4927Z" fill="white"/>
<path d="M151.967 104.901C151.772 105.403 151.496 105.848 151.2 106.279C150.894 106.703 150.569 107.114 150.161 107.466C150.355 106.963 150.631 106.518 150.928 106.087C151.235 105.664 151.561 105.253 151.967 104.901Z" fill="white"/>
<path d="M141.34 110.123C140.837 109.927 140.393 109.651 139.961 109.355C139.537 109.049 139.127 108.723 138.775 108.316C139.277 108.511 139.722 108.787 140.153 109.083C140.577 109.389 140.987 109.715 141.34 110.123Z" fill="white"/>
<path d="M146.021 94.852C146.839 95.9767 147.686 97.0793 148.53 98.184C148.316 97.6253 148.131 97.0607 147.965 96.484C147.958 96.4573 147.996 96.446 148.006 96.4713C148.177 96.9133 148.366 97.3493 148.529 97.794C148.608 98.008 148.688 98.2207 148.77 98.4333C148.788 98.4793 148.806 98.5247 148.824 98.57C149.481 99.432 150.135 100.296 150.767 101.175C151.521 102.225 152.249 103.293 152.98 104.359C153.735 105.461 154.452 106.752 155.25 107.823C155.319 107.915 153.891 108.493 153.757 108.567C153.621 108.643 153.528 108.51 153.673 108.466C153.807 108.425 154.939 107.73 154.953 107.716C154.222 106.641 153.373 105.647 152.607 104.597C151.846 103.551 151.081 102.507 150.343 101.445C148.843 99.288 147.465 97.0467 145.977 94.88C145.957 94.8527 146.001 94.8247 146.021 94.852Z" fill="#263238"/>
<path d="M135.853 102.37C136.087 102.825 136.338 103.275 136.545 103.742C136.63 103.935 136.714 104.129 136.799 104.322C136.449 102.658 136.106 100.993 135.765 99.3259C135.761 99.3066 135.791 99.2966 135.796 99.3166C136.5 102.015 137.211 104.71 137.865 107.421C138.488 110.005 139.241 112.621 139.597 115.257C139.81 115.187 141.005 114.693 141.04 114.77C141.075 114.848 139.477 115.6 139.456 115.537C138.587 112.961 138.048 110.034 137.457 107.382C137.29 106.635 137.135 105.887 136.975 105.138C136.802 104.687 136.592 104.253 136.387 103.815C136.171 103.352 135.996 102.867 135.806 102.392C135.795 102.365 135.839 102.343 135.853 102.37Z" fill="#263238"/>
<path d="M139.923 112.769C142.057 111.566 150.973 106.951 152.968 106.081C153.106 106.02 153.179 106.091 153.043 106.172C146.737 109.929 142.129 111.773 139.974 112.85C139.921 112.877 139.869 112.8 139.923 112.769Z" fill="#263238"/>
<path d="M384.211 288.034H181.092L210.463 121.467H413.581L384.211 288.034Z" fill="#ED1C24"/>
<path d="M279.98 104.217H213.504L210.463 121.467H281.603L279.98 104.217Z" fill="#ED1C24"/>
<g opacity="0.1">
<path d="M384.211 288.034H181.092L210.463 121.467H413.581L384.211 288.034Z" fill="black"/>
<path d="M279.98 104.217H213.504L210.463 121.467H281.603L279.98 104.217Z" fill="black"/>
</g>
<path d="M206.331 111.253C206.069 110.287 206.009 109.319 205.998 108.353C206.007 107.385 206.067 106.419 206.331 105.452C206.595 106.419 206.655 107.386 206.665 108.353C206.653 109.32 206.594 110.287 206.331 111.253Z" fill="#263238"/>
<path d="M200.424 112.962C199.713 112.256 199.178 111.448 198.685 110.617C198.21 109.775 197.778 108.907 197.523 107.938C198.236 108.643 198.771 109.451 199.262 110.283C199.736 111.126 200.169 111.993 200.424 112.962Z" fill="#263238"/>
<path d="M196.163 117.395C195.194 117.139 194.327 116.707 193.484 116.233C192.651 115.741 191.843 115.206 191.139 114.494C192.108 114.749 192.975 115.181 193.817 115.656C194.649 116.149 195.457 116.683 196.163 117.395Z" fill="#263238"/>
<path d="M194.689 123.365C193.722 123.627 192.755 123.687 191.788 123.698C190.821 123.688 189.854 123.629 188.887 123.365C189.854 123.101 190.821 123.041 191.788 123.031C192.755 123.043 193.721 123.102 194.689 123.365Z" fill="#263238"/>
<path d="M196.397 129.272C195.691 129.983 194.883 130.518 194.051 131.011C193.209 131.486 192.342 131.918 191.373 132.173C192.078 131.461 192.886 130.926 193.718 130.434C194.561 129.96 195.428 129.527 196.397 129.272Z" fill="#263238"/>
<path d="M200.83 133.533C200.574 134.502 200.142 135.369 199.668 136.212C199.176 137.045 198.641 137.853 197.929 138.557C198.184 137.588 198.616 136.721 199.091 135.879C199.584 135.047 200.119 134.239 200.83 133.533Z" fill="#263238"/>
<path d="M206.799 135.007C207.062 135.975 207.121 136.941 207.133 137.908C207.123 138.875 207.064 139.842 206.799 140.809C206.535 139.842 206.476 138.875 206.466 137.908C206.477 136.941 206.537 135.975 206.799 135.007Z" fill="#263238"/>
<path d="M212.707 133.299C213.418 134.005 213.952 134.813 214.445 135.645C214.921 136.487 215.353 137.354 215.607 138.323C214.895 137.618 214.361 136.81 213.869 135.978C213.395 135.135 212.963 134.268 212.707 133.299Z" fill="#263238"/>
<path d="M216.968 128.866C217.937 129.122 218.804 129.554 219.647 130.028C220.479 130.52 221.287 131.055 221.992 131.767C221.023 131.512 220.155 131.08 219.313 130.605C218.482 130.112 217.674 129.577 216.968 128.866Z" fill="#263238"/>
<path d="M218.443 122.896C219.41 122.633 220.377 122.574 221.344 122.562C222.31 122.573 223.278 122.631 224.244 122.896C223.277 123.16 222.31 123.219 221.344 123.229C220.376 123.218 219.41 123.159 218.443 122.896Z" fill="#263238"/>
<path d="M216.734 116.989C217.44 116.278 218.248 115.743 219.079 115.251C219.921 114.776 220.789 114.343 221.758 114.089C221.053 114.801 220.245 115.335 219.413 115.827C218.57 116.301 217.703 116.733 216.734 116.989Z" fill="#263238"/>
<path d="M212.302 112.728C212.558 111.759 212.99 110.892 213.464 110.049C213.956 109.217 214.49 108.409 215.202 107.704C214.948 108.673 214.516 109.541 214.04 110.383C213.547 111.214 213.012 112.022 212.302 112.728Z" fill="#263238"/>
<path d="M383.913 288.034H180.357L151.456 127.513H355.013L383.913 288.034Z" fill="#ED1C24"/>
<path d="M221.993 225.641C226.665 225.641 230.453 221.853 230.453 217.181C230.453 212.508 226.665 208.72 221.993 208.72C217.32 208.72 213.532 212.508 213.532 217.181C213.532 221.853 217.32 225.641 221.993 225.641Z" fill="#263238"/>
<path d="M288.876 225.641C293.549 225.641 297.337 221.853 297.337 217.181C297.337 212.508 293.549 208.72 288.876 208.72C284.203 208.72 280.415 212.508 280.415 217.181C280.415 221.853 284.203 225.641 288.876 225.641Z" fill="#263238"/>
<path d="M267.587 226.992L267.123 226.106C267.08 226.026 262.71 217.947 253.915 217.947C245.895 217.947 243.939 225.554 243.86 225.877L243.623 226.847L241.683 226.378L241.916 225.408C241.939 225.313 244.299 215.947 253.915 215.947C263.94 215.947 268.697 224.801 268.894 225.178L269.359 226.063L267.587 226.992Z" fill="#263238"/>
<path d="M370.405 216.209C370.839 216.116 371.272 216.014 371.703 215.904" stroke="#263238" stroke-miterlimit="10"/>
<path d="M374.262 215.146C384.459 211.703 392.999 203.681 393.803 194.309C395.574 173.642 370.405 162.226 373.005 138.345C375.485 115.564 399.379 113.939 408.958 117.087C419.537 120.565 415.913 130.734 406.334 129.422C389.727 127.147 379.289 109.093 387.176 88.6133C393.069 73.3127 407.758 67.542 413.725 65.782" stroke="#263238" stroke-miterlimit="10" stroke-dasharray="4 4"/>
<path d="M415.01 65.426C415.836 65.2133 416.306 65.1246 416.306 65.1246" stroke="#263238" stroke-miterlimit="10"/>
<path d="M426.879 61.4426C425.178 56.1733 413.791 58.0666 416.015 64.9506C418.237 71.8353 428.581 66.712 426.879 61.4426Z" fill="#263238"/>
<path d="M409.821 59.318C409.906 57.0073 413.121 55.2293 417.665 56.0493C422.209 56.87 426.489 59.9306 426.489 59.9306C426.489 59.9306 421.996 62.6793 417.404 63.164C412.811 63.6493 409.736 61.64 409.821 59.318Z" fill="#EBEBEB"/>
<path d="M426.489 59.9307C424.13 59.9467 421.774 59.868 419.417 59.796C417.062 59.6953 414.707 59.602 412.355 59.4113C414.714 59.394 417.07 59.474 419.427 59.546C421.782 59.6473 424.137 59.7413 426.489 59.9307Z" fill="#263238"/>
<path d="M414.389 57.272C415.071 57.5773 415.703 57.9646 416.338 58.3446C416.958 58.75 417.583 59.1486 418.155 59.6293C417.473 59.3246 416.841 58.9373 416.206 58.556C415.585 58.1513 414.962 57.7526 414.389 57.272Z" fill="#263238"/>
<path d="M420.566 59.7133C419.969 60.2206 419.319 60.6466 418.674 61.0793C418.013 61.4873 417.356 61.9026 416.647 62.2353C417.244 61.7279 417.893 61.3013 418.539 60.8693C419.199 60.4613 419.857 60.0473 420.566 59.7133Z" fill="#263238"/>
<path d="M421.251 58.412C421.603 58.5633 421.895 58.7893 422.191 59.01C422.469 59.2527 422.753 59.4893 422.975 59.802C422.622 59.6513 422.331 59.4247 422.035 59.204C421.757 58.9607 421.474 58.7233 421.251 58.412Z" fill="#263238"/>
<path d="M414.151 73.0332C415.572 74.8579 419.219 74.4199 422.426 71.0972C425.632 67.7739 427.314 62.7886 427.314 62.7886C427.314 62.7886 422.061 63.1866 418.053 65.4792C414.044 67.7712 412.724 71.1999 414.151 73.0332Z" fill="#EBEBEB"/>
<path d="M427.313 62.788C425.39 64.1546 423.525 65.5966 421.656 67.0333C419.805 68.4926 417.948 69.946 416.152 71.4753C418.076 70.1093 419.941 68.6666 421.809 67.23C423.661 65.7706 425.517 64.3173 427.313 62.788Z" fill="#263238"/>
<path d="M419.053 72.0213C419.427 71.374 419.713 70.6913 420.007 70.0107C420.273 69.3193 420.546 68.6307 420.729 67.906C420.354 68.5527 420.068 69.236 419.775 69.9167C419.509 70.608 419.237 71.2967 419.053 72.0213Z" fill="#263238"/>
<path d="M422.636 66.4293C421.855 66.3673 421.079 66.4013 420.302 66.4273C419.527 66.4826 418.751 66.5306 417.981 66.6753C418.763 66.738 419.539 66.704 420.315 66.6773C421.09 66.6213 421.865 66.5726 422.636 66.4293Z" fill="#263238"/>
<path d="M423.953 67.0833C424.15 66.7547 424.255 66.4007 424.367 66.0487C424.45 65.6887 424.541 65.3313 424.539 64.948C424.341 65.2767 424.237 65.6307 424.125 65.9827C424.042 66.3427 423.951 66.7007 423.953 67.0833Z" fill="#263238"/>
<path d="M426.879 61.4426C425.829 61.7813 424.703 61.2053 424.365 60.1553C424.026 59.1053 424.602 57.98 425.651 57.6406C426.701 57.3013 427.827 57.878 428.166 58.928C428.505 59.978 427.929 61.104 426.879 61.4426Z" fill="#455A64"/>
<path d="M428.107 65.2446C427.057 65.5833 425.931 65.0073 425.592 63.9573C425.253 62.9073 425.829 61.782 426.879 61.4426C427.929 61.104 429.055 61.68 429.394 62.73C429.733 63.7793 429.157 64.9053 428.107 65.2446Z" fill="#455A64"/>
<path d="M209.543 63.5474C208.588 72.6734 200.412 79.3007 191.287 78.346C187.599 77.96 184.32 76.3947 181.781 74.0567L173.469 75.2767L177.628 68.09C176.619 65.6347 176.194 62.902 176.488 60.0894C177.443 50.9634 185.619 44.336 194.744 45.2907C203.869 46.2453 210.497 54.4214 209.543 63.5474Z" fill="white"/>
<path d="M209.543 63.5473C209.195 66.5807 208.087 69.554 206.189 71.97C205.753 72.6027 205.192 73.1313 204.683 73.704C204.106 74.2067 203.567 74.7587 202.93 75.1887C201.715 76.1247 200.349 76.8587 198.922 77.4207C197.501 78.0187 195.973 78.304 194.449 78.4873C193.68 78.5287 192.91 78.5987 192.14 78.5313C191.369 78.514 190.6 78.4313 189.841 78.292C186.8 77.7413 183.92 76.318 181.62 74.2333L181.817 74.294L173.512 75.5687L172.909 75.6613L173.215 75.13L177.349 67.9293L177.33 68.2133C175.316 63.4707 175.77 57.8227 178.353 53.4033C179.641 51.1907 181.437 49.284 183.557 47.862C185.676 46.436 188.133 45.542 190.649 45.2013C193.167 44.8673 195.758 45.0967 198.163 45.8953C200.564 46.704 202.766 48.064 204.571 49.8247C208.238 53.312 210.082 58.544 209.543 63.5473ZM209.543 63.5473C210.048 58.54 208.167 53.34 204.497 49.8993C202.675 48.1787 200.469 46.8753 198.089 46.1187C195.705 45.3727 193.155 45.1947 190.699 45.5647C188.245 45.9413 185.869 46.8553 183.837 48.2753C181.81 49.6987 180.1 51.56 178.865 53.698C177.606 55.8313 176.954 58.2753 176.757 60.7287C176.601 63.19 177.003 65.6813 177.926 67.9673L177.986 68.116L177.907 68.252L173.723 75.424L173.426 74.9853L181.747 73.82L181.861 73.804L181.943 73.8807C184.143 75.9453 186.926 77.3867 189.9 77.9793C190.643 78.1293 191.396 78.2233 192.154 78.2533C192.911 78.3333 193.669 78.2773 194.428 78.25C195.933 78.0953 197.449 77.8407 198.866 77.2727C200.288 76.74 201.663 76.042 202.874 75.1127C203.511 74.6893 204.05 74.1447 204.629 73.648C205.139 73.082 205.702 72.5593 206.14 71.932C208.046 69.5373 209.175 66.5787 209.543 63.5473Z" fill="#263238"/>
<path d="M184.892 69.566C184.892 68.574 185.581 67.8573 186.517 67.8573C187.509 67.8573 188.143 68.574 188.143 69.566C188.143 70.5306 187.509 71.274 186.517 71.274C185.553 71.274 184.892 70.53 184.892 69.566ZM185.581 65.6253L185.195 52.3993H187.84L187.454 65.6253H185.581Z" fill="#ED1C24"/>
<path d="M191.23 69.566C191.23 68.574 191.919 67.8573 192.856 67.8573C193.848 67.8573 194.482 68.574 194.482 69.566C194.482 70.5306 193.848 71.274 192.856 71.274C191.891 71.274 191.23 70.53 191.23 69.566ZM191.919 65.6253L191.533 52.3993H194.179L193.793 65.6253H191.919Z" fill="#ED1C24"/>
<path d="M197.568 69.566C197.568 68.574 198.257 67.8573 199.194 67.8573C200.186 67.8573 200.819 68.574 200.819 69.566C200.819 70.5306 200.185 71.274 199.194 71.274C198.229 71.274 197.568 70.53 197.568 69.566ZM198.257 65.6253L197.871 52.3993H200.517L200.131 65.6253H198.257Z" fill="#ED1C24"/>
</svg>
