<svg width="28" height="28" viewBox="0 0 28 28" fill="none" xmlns="http://www.w3.org/2000/svg">
<path d="M19.1471 8.85294L26.5 1.5M26.5 1.5H20.6176M26.5 1.5V7.38235M4.44118 1.5H10.3235L13.2647 8.85294L9.58824 11.0588C11.1632 14.2523 13.7477 16.8368 16.9412 18.4118L19.1471 14.7353L26.5 17.6765V23.5588C26.5 24.3389 26.1901 25.087 25.6385 25.6385C25.087 26.1901 24.3389 26.5 23.5588 26.5C17.8224 26.1514 12.412 23.7154 8.34828 19.6517C4.28456 15.588 1.8486 10.1776 1.5 4.44118C1.5 3.66113 1.80987 2.91303 2.36145 2.36145C2.91303 1.80987 3.66113 1.5 4.44118 1.5Z" stroke="white" stroke-width="2" stroke-linecap="round" stroke-linejoin="round"/>
</svg>
