<svg width="40" height="41" viewBox="0 0 40 41" fill="none" xmlns="http://www.w3.org/2000/svg">
<path d="M39.9624 22.0211C39.9655 21.9782 39.9708 21.9352 39.9734 21.8917C39.9771 21.8335 39.9702 21.7843 39.9603 21.7382C39.9362 19.8396 39.9027 17.941 39.8555 16.0445C39.7916 13.4616 40.1028 10.5118 39.3173 8.02C38.0088 3.8707 33.6771 0.823442 29.401 0.754269C29.2307 0.751649 29.0604 0.753746 28.8901 0.760558C26.0608 0.367008 23.0597 0.52317 20.2299 0.570857C17.2272 0.621688 14.1469 0.630073 11.1673 1.05559C8.39302 1.10328 5.81896 2.53494 3.94501 4.53937C2.97922 5.57224 2.17902 6.76756 1.59892 8.06192C0.682381 10.1072 0.495824 12.403 0.399402 14.6171C0.292499 17.0674 -0.117814 19.6347 0.0320597 22.0657C0.310322 26.5813 -0.17547 31.8305 2.7544 35.5868C4.24528 37.4985 6.3147 39.0281 8.6304 39.7822C12.4469 41.0247 16.9929 40.2748 20.9447 40.2842C23.2777 40.2895 25.8266 40.5531 28.2172 40.3319C32.4881 40.4949 36.6432 37.4492 38.721 33.8449C39.7407 32.0758 39.9577 30.1264 39.9938 28.1513C40.0043 27.5691 39.9996 26.9843 39.9944 26.4021C39.9938 24.9421 39.9802 23.4811 39.9624 22.0211ZM4.86469 4.92506C6.90738 3.06212 9.11199 2.50978 11.641 1.96584C14.4996 1.9695 17.3681 1.73369 20.2294 1.73107C22.6425 1.72897 25.05 1.95169 27.4631 1.94016C30.6996 1.92444 33.478 2.15292 35.8498 4.66094C37.6273 6.54013 38.2074 8.69705 38.6476 11.0741C38.57 14.212 38.9646 17.4495 39.0045 20.5701C39.0134 21.255 39.0307 21.952 39.0453 22.6552C37.6525 27.6838 36.2302 32.234 31.7613 33.8517C27.8609 35.2635 23.3752 34.8353 19.3532 34.9737C15.0194 35.1225 10.2381 35.9018 6.22822 33.2837C1.89079 30.4513 1.05444 24.6308 1.22318 18.8879C1.2258 18.7957 1.19227 18.7271 1.1451 18.6809C1.22214 16.9857 1.38143 15.2941 1.51873 13.6031C1.80066 10.1523 2.17378 7.37963 4.86469 4.92506ZM37.1578 30.859C36.422 32.7251 35.3739 34.4318 33.5912 35.4705C30.5376 37.2501 25.421 36.5825 21.9954 36.6951C16.1403 36.8869 4.84164 38.5015 2.74865 31.3269C3.09032 31.852 3.47076 32.3478 3.89785 32.801C7.91667 37.0662 13.572 36.4614 18.4241 36.2733C23.2263 36.0873 29.052 37.02 33.5671 34.4324C34.9657 33.6301 36.1757 32.3792 37.1578 30.859ZM35.3456 36.1397C33.6394 37.7427 31.2163 38.9878 28.8503 39.0795C26.261 39.1796 23.557 39.0947 20.9441 39.101C16.1843 39.112 10.1988 40.0311 6.02805 37.2045C4.60739 36.2418 3.2994 35.0177 2.52017 33.4592C2.14286 32.7046 1.95579 31.9196 1.84574 31.1194C3.38064 38.7714 15.1064 38.4459 21.1349 38.3238C25.399 38.2374 30.3579 38.8107 34.1116 36.3592C36.8669 34.5597 38.1194 31.3054 38.9038 28.2011C38.581 31.1519 37.6813 33.9445 35.3456 36.1397Z" fill="white"/>
<path d="M25.107 13.8923C25.9664 14.7377 27.0215 15.3745 28.1673 15.6747V16.327V18.5524C27.1427 18.3005 26.1476 17.866 25.2043 17.2586C24.5423 16.8322 23.9258 16.3331 23.3619 15.7685L22.9071 15.3132L22.9084 15.9007L22.9259 23.6536C22.9187 25.32 22.2738 26.7491 21.1046 27.6819C20.1526 28.4418 18.947 28.7969 17.6399 28.717C17.3325 28.6982 17.0196 28.6556 16.7031 28.5883C15.3023 28.2905 13.9743 27.5446 12.8882 26.4593C12.6837 26.2548 12.488 26.0387 12.3016 25.8108C11.0344 24.2611 10.382 22.3892 10.4919 20.5875C10.5758 19.2176 11.1194 18.0087 12.026 17.1634C13.2271 16.0433 14.906 15.6372 16.7031 16.0192C16.9374 16.069 17.1698 16.1317 17.3996 16.2064V16.8843V19.0994C17.1782 19.0051 16.9487 18.9313 16.7133 18.8813C14.8424 18.4836 13.3274 19.7223 13.3553 21.6442C13.3731 22.8751 14.0289 24.0852 14.9929 24.8796C15.4464 25.2533 15.9688 25.5364 16.5263 25.6863C16.9624 25.8034 17.3816 25.8304 17.7694 25.7818C19.1059 25.6146 20.0715 24.5359 20.0716 23.0202L20.0757 17.8311V8.64404L22.9139 9.24733C22.929 9.5129 22.9614 9.77745 23.0106 10.0399C23.2804 11.4833 24.0444 12.8475 25.107 13.8923Z" stroke="white" stroke-width="1.09843"/>
<path d="M17.4587 18.1852C17.7972 18.2571 18.1223 18.3827 18.4266 18.55V15.0293C18.1056 14.9125 17.7789 14.8177 17.4486 14.7475C15.5717 14.3485 13.8163 14.773 12.5615 15.9432C12.0343 16.4348 11.6243 17.0439 11.3491 17.7343M14.7616 19.2381C14.5126 19.6462 14.3741 20.1486 14.3823 20.7159C14.3986 21.8418 14.9983 22.9505 15.883 23.6794C16.2986 24.022 16.7769 24.2811 17.2873 24.4182C17.6871 24.5257 18.0711 24.5504 18.4266 24.5059C19.0588 24.4268 19.6 24.1253 19.9759 23.6614M20.5396 8.64522V7.3125L23.9314 8.03344C23.9346 8.37768 23.9687 8.72018 24.0322 9.05851C24.2881 10.4277 25.013 11.7226 26.022 12.7147C26.9018 13.5801 27.9973 14.215 29.1846 14.4674L29.1944 17.9208C28.8814 17.8544 28.5708 17.7716 28.2632 17.6726" stroke="white" stroke-width="1.09843"/>
</svg>
