<svg width="30" height="30" viewBox="0 0 30 30" fill="none" xmlns="http://www.w3.org/2000/svg">
<g clip-path="url(#clip0_66_3249)">
<mask id="mask0_66_3249" style="mask-type:luminance" maskUnits="userSpaceOnUse" x="2" y="2" width="26" height="26">
<path d="M28 2H2V28H28V2Z" fill="white"/>
</mask>
<g mask="url(#mask0_66_3249)">
<path d="M14.8146 14.5243C16.5352 14.5243 18.0251 13.9072 19.2425 12.6896C20.4599 11.4722 21.077 9.98274 21.077 8.26194C21.077 6.54173 20.4599 5.05202 19.2423 3.83427C18.0247 2.61711 16.535 2 14.8146 2C13.0938 2 11.6043 2.61711 10.3869 3.83447C9.16956 5.05182 8.55225 6.54153 8.55225 8.26194C8.55225 9.98274 9.16956 11.4725 10.3871 12.6898C11.6047 13.907 13.0944 14.5243 14.8146 14.5243Z" fill="#835E58"/>
<path d="M25.7722 21.9926C25.7371 21.486 25.666 20.9334 25.5615 20.3498C25.456 19.7618 25.3201 19.206 25.1574 18.698C24.9894 18.1729 24.7609 17.6544 24.4784 17.1575C24.1853 16.6418 23.8409 16.1927 23.4545 15.8231C23.0504 15.4365 22.5557 15.1257 21.9836 14.899C21.4135 14.6734 20.7817 14.5592 20.1059 14.5592C19.8405 14.5592 19.5838 14.6681 19.0881 14.9908C18.783 15.1898 18.4261 15.4199 18.0278 15.6744C17.6872 15.8914 17.2258 16.0947 16.6559 16.2788C16.0999 16.4587 15.5354 16.5499 14.9782 16.5499C14.421 16.5499 13.8566 16.4587 13.3 16.2788C12.7307 16.0949 12.2693 15.8916 11.9291 15.6746C11.5346 15.4224 11.1775 15.1923 10.8679 14.9906C10.3728 14.6679 10.1159 14.559 9.85046 14.559C9.17444 14.559 8.54285 14.6734 7.97295 14.8992C7.40126 15.1255 6.90634 15.4363 6.50188 15.8233C6.11566 16.1931 5.7711 16.642 5.47832 17.1575C5.19604 17.6544 4.96753 18.1727 4.79932 18.6982C4.63686 19.2062 4.50098 19.7618 4.39545 20.3498C4.29091 20.9326 4.21989 21.4854 4.18478 21.9932C4.15027 22.4907 4.13281 23.0071 4.13281 23.5286C4.13281 24.8858 4.56425 25.9845 5.41504 26.7948C6.25531 27.5944 7.36714 28.0001 8.71919 28.0001H21.2384C22.5904 28.0001 23.7018 27.5946 24.5423 26.7948C25.3933 25.9851 25.8247 24.8862 25.8247 23.5284C25.8245 23.0045 25.8069 22.4877 25.7722 21.9926Z" fill="#835E58"/>
</g>
</g>
<defs>
<clipPath id="clip0_66_3249">
<rect width="26" height="26" fill="white" transform="translate(2 2)"/>
</clipPath>
</defs>
</svg>
