<svg width="40" height="41" viewBox="0 0 40 41" fill="none" xmlns="http://www.w3.org/2000/svg">
<path d="M14.4653 26.553L30.6719 18.0968L14.4653 9.63745V26.553Z" fill="white"/>
<path d="M39.9621 22.0209C39.9653 21.9779 39.9705 21.9344 39.9731 21.8914C39.9768 21.8333 39.97 21.784 39.96 21.7379C39.9364 19.8393 39.9024 17.9413 39.8552 16.0443C39.7913 13.4614 40.1026 10.5117 39.317 8.01991C38.0085 3.87066 33.6769 0.823441 29.4009 0.754269C29.2306 0.751649 29.0603 0.753742 28.8899 0.760554C26.0607 0.36701 23.0596 0.52317 20.2299 0.570856C17.2272 0.621163 14.147 0.630073 11.1674 1.05558C8.39315 1.10327 5.81913 2.53543 3.94521 4.53931C2.97943 5.57217 2.17924 6.768 1.59967 8.06182C0.683145 10.1071 0.496591 12.4029 0.399646 14.6169C0.292745 17.0672 -0.117569 19.6344 0.032303 22.0659C0.310561 26.5815 -0.175212 31.8306 2.75462 35.5869C4.246 37.4985 6.31486 39.0282 8.63054 39.7822C12.447 41.0247 16.993 40.2748 20.9441 40.2842C23.2771 40.2895 25.826 40.5531 28.2166 40.3319C32.4874 40.4949 36.6424 37.4493 38.7202 33.845C39.7399 32.0759 39.9569 30.1265 39.993 28.1515C40.0035 27.5693 39.9983 26.985 39.9936 26.4023C39.9936 24.9418 39.9794 23.4808 39.9621 22.0209ZM4.86488 4.925C6.90754 3.06208 9.11212 2.50976 11.6416 1.96582C14.5002 1.96949 17.3687 1.73368 20.2299 1.73158C22.643 1.72949 25.0504 1.95219 27.4635 1.94066C30.6999 1.92547 33.4783 2.15342 35.8501 4.66141C37.627 6.54057 38.2077 8.69747 38.6479 11.0745C38.5703 14.2123 38.9649 17.4498 39.0047 20.5704C39.0136 21.2553 39.0309 21.9522 39.0456 22.6555C37.6527 27.684 36.2305 32.2341 31.7616 33.8518C27.8613 35.2635 23.3756 34.8354 19.3537 34.9738C15.02 35.1226 10.2388 35.9018 6.22892 33.2838C1.89155 30.4514 1.0552 24.631 1.22394 18.8882C1.22656 18.796 1.19302 18.7273 1.14586 18.6812C1.22237 16.986 1.38167 15.2944 1.51949 13.6034C1.80089 10.1522 2.174 7.37954 4.86488 4.925ZM37.1575 30.8586C36.4218 32.7246 35.3737 34.4314 33.591 35.47C30.5375 37.2496 25.4209 36.582 21.9953 36.6947C16.1404 36.8865 4.84182 38.501 2.74886 31.3265C3.09053 31.8516 3.47044 32.3473 3.89805 32.8006C7.91681 37.0657 13.5721 36.4609 18.4241 36.2728C23.2263 36.0868 29.0519 37.0196 33.5664 34.4314C34.9655 33.6296 36.1755 32.3788 37.1575 30.8586ZM35.3454 36.1392C33.6392 37.7422 31.2161 38.9873 28.8501 39.079C26.2609 39.1791 23.5569 39.0942 20.9441 39.1005C16.1844 39.1115 10.199 40.0306 6.02822 37.204C4.60758 36.2414 3.29961 35.0173 2.52038 33.4588C2.14308 32.7042 1.95601 31.9192 1.84596 31.119C3.38031 38.7709 15.1065 38.4454 21.1349 38.3233C25.3989 38.2369 30.3577 38.8102 34.1114 36.3582C36.8667 34.5587 38.1191 31.3045 38.9036 28.2002C38.5808 31.1515 37.681 33.9446 35.3454 36.1392Z" fill="white"/>
</svg>
