<svg width="40" height="41" viewBox="0 0 40 41" fill="none" xmlns="http://www.w3.org/2000/svg">
<mask id="path-1-outside-1_61_597" maskUnits="userSpaceOnUse" x="8.95532" y="6.83643" width="22" height="22" fill="black">
<rect fill="white" x="8.95532" y="6.83643" width="22" height="22"/>
<path d="M12.326 7.83643C11.0223 7.83643 9.95532 8.90344 9.95532 10.2071V25.3791C9.95532 26.6827 11.0223 27.7497 12.326 27.7497H27.498C28.8016 27.7497 29.8686 26.6827 29.8686 25.3791V10.2071C29.8686 8.90344 28.8016 7.83643 27.498 7.83643H12.326ZM12.326 8.78468H15.4439C13.8043 10.4906 12.8001 12.7311 12.8001 15.1854C12.8001 17.7273 13.8755 20.0445 15.6208 21.7704C15.5573 21.7099 15.6394 21.815 15.6476 22.0009C15.656 22.1929 15.6271 22.4565 15.5495 22.7177C15.3941 23.24 15.0691 23.7214 14.5466 23.8956C14.4473 23.9287 14.3618 23.9936 14.3033 24.0804C14.2448 24.1671 14.2167 24.2707 14.2232 24.3751C14.2298 24.4795 14.2707 24.5788 14.3395 24.6576C14.4084 24.7363 14.5014 24.7901 14.604 24.8105C15.9124 25.0722 16.838 24.6782 17.52 24.3651C18.2021 24.0519 18.5707 23.8412 19.26 24.1197C19.2619 24.1203 19.2637 24.1209 19.2656 24.1215C20.5563 24.6261 21.9774 24.905 23.4679 24.905C25.458 24.905 27.3231 24.4077 28.9204 23.5409V25.3791C28.9204 26.1702 28.2891 26.8015 27.498 26.8015H12.326C11.5349 26.8015 10.9036 26.1702 10.9036 25.3791V10.2071C10.9036 9.41598 11.5349 8.78468 12.326 8.78468ZM16.8283 8.78468H27.498C28.2891 8.78468 28.9204 9.41598 28.9204 10.2071V22.4417C27.3685 23.3938 25.4946 23.9567 23.4679 23.9567C22.0978 23.9567 20.7956 23.7004 19.6156 23.24C18.6138 22.8352 17.7977 23.1939 17.1246 23.503C16.7601 23.6703 16.4005 23.8094 15.9939 23.8863C16.1951 23.5996 16.3671 23.2933 16.4579 22.9881C16.5652 22.6275 16.6088 22.2744 16.5949 21.9593C16.5811 21.6453 16.5537 21.3577 16.2884 21.0971L16.2875 21.0962C14.7046 19.5309 13.7483 17.4606 13.7483 15.1854C13.7483 12.6618 14.9271 10.3908 16.8283 8.78468ZM23.6976 13.0453C23.572 13.0473 23.4523 13.099 23.3648 13.1891C23.2773 13.2792 23.2291 13.4003 23.2308 13.5259V17.7931C23.23 17.8559 23.2416 17.9183 23.265 17.9766C23.2884 18.0349 23.3232 18.0879 23.3673 18.1327C23.4114 18.1774 23.464 18.213 23.522 18.2372C23.5799 18.2615 23.6421 18.2739 23.705 18.2739C23.7678 18.2739 23.83 18.2615 23.888 18.2372C23.9459 18.213 23.9985 18.1774 24.0426 18.1327C24.0867 18.0879 24.1215 18.0349 24.145 17.9766C24.1684 17.9183 24.18 17.8559 24.1791 17.7931V13.5259C24.18 13.4625 24.1681 13.3995 24.1442 13.3408C24.1203 13.282 24.0848 13.2286 24.0399 13.1838C23.995 13.139 23.9416 13.1037 23.8828 13.0799C23.824 13.0561 23.761 13.0443 23.6976 13.0453ZM16.5931 13.5259C16.5303 13.525 16.4679 13.5367 16.4096 13.5601C16.3513 13.5835 16.2982 13.6183 16.2535 13.6624C16.2087 13.7065 16.1732 13.7591 16.1489 13.8171C16.1247 13.875 16.1122 13.9372 16.1122 14.0001C16.1122 14.0629 16.1247 14.1251 16.1489 14.1831C16.1732 14.241 16.2087 14.2936 16.2535 14.3377C16.2982 14.3818 16.3513 14.4166 16.4096 14.44C16.4679 14.4635 16.5303 14.4751 16.5931 14.4742H18.109L16.1912 17.5421C16.1464 17.6139 16.1217 17.6963 16.1195 17.7808C16.1173 17.8654 16.1378 17.9489 16.1788 18.0229C16.2198 18.0969 16.2798 18.1585 16.3527 18.2015C16.4255 18.2444 16.5085 18.2671 16.5931 18.2672H18.9637C19.0265 18.2681 19.0889 18.2565 19.1472 18.233C19.2055 18.2096 19.2586 18.1748 19.3033 18.1307C19.3481 18.0866 19.3836 18.034 19.4079 17.9761C19.4321 17.9181 19.4446 17.8559 19.4446 17.7931C19.4446 17.7302 19.4321 17.668 19.4079 17.6101C19.3836 17.5521 19.3481 17.4995 19.3033 17.4554C19.2586 17.4113 19.2055 17.3765 19.1472 17.3531C19.0889 17.3297 19.0265 17.3181 18.9637 17.3189H17.4478L19.3656 14.251C19.4104 14.1793 19.4351 14.0968 19.4373 14.0123C19.4395 13.9278 19.419 13.8442 19.378 13.7702C19.337 13.6963 19.277 13.6346 19.2041 13.5917C19.1313 13.5487 19.0483 13.526 18.9637 13.5259H16.5931ZM22.2752 14.9418C22.1974 14.9432 22.1212 14.9637 22.0532 15.0015C21.9852 15.0393 21.9276 15.0932 21.8853 15.1585C21.6494 15.029 21.3834 14.9483 21.0973 14.9483C20.1864 14.9483 19.4378 15.6969 19.4378 16.6078C19.4378 17.5186 20.1864 18.2672 21.0973 18.2672C21.3831 18.2672 21.6487 18.1863 21.8844 18.057C21.9403 18.1434 22.0227 18.2093 22.1193 18.2447C22.2159 18.2801 22.3214 18.2832 22.4199 18.2534C22.5184 18.2236 22.6045 18.1626 22.6653 18.0795C22.726 17.9965 22.7581 17.896 22.7567 17.7931V16.6078V15.4224C22.7576 15.359 22.7457 15.296 22.7218 15.2373C22.6979 15.1785 22.6625 15.1251 22.6176 15.0803C22.5727 15.0355 22.5192 15.0002 22.4604 14.9764C22.4016 14.9526 22.3386 14.9408 22.2752 14.9418ZM26.3127 14.9483C25.4018 14.9483 24.6532 15.6969 24.6532 16.6078C24.6532 17.5186 25.4018 18.2672 26.3127 18.2672C27.2235 18.2672 27.9721 17.5186 27.9721 16.6078C27.9721 15.6969 27.2235 14.9483 26.3127 14.9483ZM21.0973 15.8966C21.4957 15.8966 21.8085 16.2094 21.8085 16.6078C21.8085 17.0062 21.4957 17.3189 21.0973 17.3189C20.6989 17.3189 20.3861 17.0062 20.3861 16.6078C20.3861 16.2094 20.6989 15.8966 21.0973 15.8966ZM26.3127 15.8966C26.7111 15.8966 27.0239 16.2094 27.0239 16.6078C27.0239 17.0062 26.7111 17.3189 26.3127 17.3189C25.9143 17.3189 25.6015 17.0062 25.6015 16.6078C25.6015 16.2094 25.9143 15.8966 26.3127 15.8966Z"/>
</mask>
<path d="M12.326 7.83643C11.0223 7.83643 9.95532 8.90344 9.95532 10.2071V25.3791C9.95532 26.6827 11.0223 27.7497 12.326 27.7497H27.498C28.8016 27.7497 29.8686 26.6827 29.8686 25.3791V10.2071C29.8686 8.90344 28.8016 7.83643 27.498 7.83643H12.326ZM12.326 8.78468H15.4439C13.8043 10.4906 12.8001 12.7311 12.8001 15.1854C12.8001 17.7273 13.8755 20.0445 15.6208 21.7704C15.5573 21.7099 15.6394 21.815 15.6476 22.0009C15.656 22.1929 15.6271 22.4565 15.5495 22.7177C15.3941 23.24 15.0691 23.7214 14.5466 23.8956C14.4473 23.9287 14.3618 23.9936 14.3033 24.0804C14.2448 24.1671 14.2167 24.2707 14.2232 24.3751C14.2298 24.4795 14.2707 24.5788 14.3395 24.6576C14.4084 24.7363 14.5014 24.7901 14.604 24.8105C15.9124 25.0722 16.838 24.6782 17.52 24.3651C18.2021 24.0519 18.5707 23.8412 19.26 24.1197C19.2619 24.1203 19.2637 24.1209 19.2656 24.1215C20.5563 24.6261 21.9774 24.905 23.4679 24.905C25.458 24.905 27.3231 24.4077 28.9204 23.5409V25.3791C28.9204 26.1702 28.2891 26.8015 27.498 26.8015H12.326C11.5349 26.8015 10.9036 26.1702 10.9036 25.3791V10.2071C10.9036 9.41598 11.5349 8.78468 12.326 8.78468ZM16.8283 8.78468H27.498C28.2891 8.78468 28.9204 9.41598 28.9204 10.2071V22.4417C27.3685 23.3938 25.4946 23.9567 23.4679 23.9567C22.0978 23.9567 20.7956 23.7004 19.6156 23.24C18.6138 22.8352 17.7977 23.1939 17.1246 23.503C16.7601 23.6703 16.4005 23.8094 15.9939 23.8863C16.1951 23.5996 16.3671 23.2933 16.4579 22.9881C16.5652 22.6275 16.6088 22.2744 16.5949 21.9593C16.5811 21.6453 16.5537 21.3577 16.2884 21.0971L16.2875 21.0962C14.7046 19.5309 13.7483 17.4606 13.7483 15.1854C13.7483 12.6618 14.9271 10.3908 16.8283 8.78468ZM23.6976 13.0453C23.572 13.0473 23.4523 13.099 23.3648 13.1891C23.2773 13.2792 23.2291 13.4003 23.2308 13.5259V17.7931C23.23 17.8559 23.2416 17.9183 23.265 17.9766C23.2884 18.0349 23.3232 18.0879 23.3673 18.1327C23.4114 18.1774 23.464 18.213 23.522 18.2372C23.5799 18.2615 23.6421 18.2739 23.705 18.2739C23.7678 18.2739 23.83 18.2615 23.888 18.2372C23.9459 18.213 23.9985 18.1774 24.0426 18.1327C24.0867 18.0879 24.1215 18.0349 24.145 17.9766C24.1684 17.9183 24.18 17.8559 24.1791 17.7931V13.5259C24.18 13.4625 24.1681 13.3995 24.1442 13.3408C24.1203 13.282 24.0848 13.2286 24.0399 13.1838C23.995 13.139 23.9416 13.1037 23.8828 13.0799C23.824 13.0561 23.761 13.0443 23.6976 13.0453ZM16.5931 13.5259C16.5303 13.525 16.4679 13.5367 16.4096 13.5601C16.3513 13.5835 16.2982 13.6183 16.2535 13.6624C16.2087 13.7065 16.1732 13.7591 16.1489 13.8171C16.1247 13.875 16.1122 13.9372 16.1122 14.0001C16.1122 14.0629 16.1247 14.1251 16.1489 14.1831C16.1732 14.241 16.2087 14.2936 16.2535 14.3377C16.2982 14.3818 16.3513 14.4166 16.4096 14.44C16.4679 14.4635 16.5303 14.4751 16.5931 14.4742H18.109L16.1912 17.5421C16.1464 17.6139 16.1217 17.6963 16.1195 17.7808C16.1173 17.8654 16.1378 17.9489 16.1788 18.0229C16.2198 18.0969 16.2798 18.1585 16.3527 18.2015C16.4255 18.2444 16.5085 18.2671 16.5931 18.2672H18.9637C19.0265 18.2681 19.0889 18.2565 19.1472 18.233C19.2055 18.2096 19.2586 18.1748 19.3033 18.1307C19.3481 18.0866 19.3836 18.034 19.4079 17.9761C19.4321 17.9181 19.4446 17.8559 19.4446 17.7931C19.4446 17.7302 19.4321 17.668 19.4079 17.6101C19.3836 17.5521 19.3481 17.4995 19.3033 17.4554C19.2586 17.4113 19.2055 17.3765 19.1472 17.3531C19.0889 17.3297 19.0265 17.3181 18.9637 17.3189H17.4478L19.3656 14.251C19.4104 14.1793 19.4351 14.0968 19.4373 14.0123C19.4395 13.9278 19.419 13.8442 19.378 13.7702C19.337 13.6963 19.277 13.6346 19.2041 13.5917C19.1313 13.5487 19.0483 13.526 18.9637 13.5259H16.5931ZM22.2752 14.9418C22.1974 14.9432 22.1212 14.9637 22.0532 15.0015C21.9852 15.0393 21.9276 15.0932 21.8853 15.1585C21.6494 15.029 21.3834 14.9483 21.0973 14.9483C20.1864 14.9483 19.4378 15.6969 19.4378 16.6078C19.4378 17.5186 20.1864 18.2672 21.0973 18.2672C21.3831 18.2672 21.6487 18.1863 21.8844 18.057C21.9403 18.1434 22.0227 18.2093 22.1193 18.2447C22.2159 18.2801 22.3214 18.2832 22.4199 18.2534C22.5184 18.2236 22.6045 18.1626 22.6653 18.0795C22.726 17.9965 22.7581 17.896 22.7567 17.7931V16.6078V15.4224C22.7576 15.359 22.7457 15.296 22.7218 15.2373C22.6979 15.1785 22.6625 15.1251 22.6176 15.0803C22.5727 15.0355 22.5192 15.0002 22.4604 14.9764C22.4016 14.9526 22.3386 14.9408 22.2752 14.9418ZM26.3127 14.9483C25.4018 14.9483 24.6532 15.6969 24.6532 16.6078C24.6532 17.5186 25.4018 18.2672 26.3127 18.2672C27.2235 18.2672 27.9721 17.5186 27.9721 16.6078C27.9721 15.6969 27.2235 14.9483 26.3127 14.9483ZM21.0973 15.8966C21.4957 15.8966 21.8085 16.2094 21.8085 16.6078C21.8085 17.0062 21.4957 17.3189 21.0973 17.3189C20.6989 17.3189 20.3861 17.0062 20.3861 16.6078C20.3861 16.2094 20.6989 15.8966 21.0973 15.8966ZM26.3127 15.8966C26.7111 15.8966 27.0239 16.2094 27.0239 16.6078C27.0239 17.0062 26.7111 17.3189 26.3127 17.3189C25.9143 17.3189 25.6015 17.0062 25.6015 16.6078C25.6015 16.2094 25.9143 15.8966 26.3127 15.8966Z" fill="white"/>
<path d="M12.326 7.83643C11.0223 7.83643 9.95532 8.90344 9.95532 10.2071V25.3791C9.95532 26.6827 11.0223 27.7497 12.326 27.7497H27.498C28.8016 27.7497 29.8686 26.6827 29.8686 25.3791V10.2071C29.8686 8.90344 28.8016 7.83643 27.498 7.83643H12.326ZM12.326 8.78468H15.4439C13.8043 10.4906 12.8001 12.7311 12.8001 15.1854C12.8001 17.7273 13.8755 20.0445 15.6208 21.7704C15.5573 21.7099 15.6394 21.815 15.6476 22.0009C15.656 22.1929 15.6271 22.4565 15.5495 22.7177C15.3941 23.24 15.0691 23.7214 14.5466 23.8956C14.4473 23.9287 14.3618 23.9936 14.3033 24.0804C14.2448 24.1671 14.2167 24.2707 14.2232 24.3751C14.2298 24.4795 14.2707 24.5788 14.3395 24.6576C14.4084 24.7363 14.5014 24.7901 14.604 24.8105C15.9124 25.0722 16.838 24.6782 17.52 24.3651C18.2021 24.0519 18.5707 23.8412 19.26 24.1197C19.2619 24.1203 19.2637 24.1209 19.2656 24.1215C20.5563 24.6261 21.9774 24.905 23.4679 24.905C25.458 24.905 27.3231 24.4077 28.9204 23.5409V25.3791C28.9204 26.1702 28.2891 26.8015 27.498 26.8015H12.326C11.5349 26.8015 10.9036 26.1702 10.9036 25.3791V10.2071C10.9036 9.41598 11.5349 8.78468 12.326 8.78468ZM16.8283 8.78468H27.498C28.2891 8.78468 28.9204 9.41598 28.9204 10.2071V22.4417C27.3685 23.3938 25.4946 23.9567 23.4679 23.9567C22.0978 23.9567 20.7956 23.7004 19.6156 23.24C18.6138 22.8352 17.7977 23.1939 17.1246 23.503C16.7601 23.6703 16.4005 23.8094 15.9939 23.8863C16.1951 23.5996 16.3671 23.2933 16.4579 22.9881C16.5652 22.6275 16.6088 22.2744 16.5949 21.9593C16.5811 21.6453 16.5537 21.3577 16.2884 21.0971L16.2875 21.0962C14.7046 19.5309 13.7483 17.4606 13.7483 15.1854C13.7483 12.6618 14.9271 10.3908 16.8283 8.78468ZM23.6976 13.0453C23.572 13.0473 23.4523 13.099 23.3648 13.1891C23.2773 13.2792 23.2291 13.4003 23.2308 13.5259V17.7931C23.23 17.8559 23.2416 17.9183 23.265 17.9766C23.2884 18.0349 23.3232 18.0879 23.3673 18.1327C23.4114 18.1774 23.464 18.213 23.522 18.2372C23.5799 18.2615 23.6421 18.2739 23.705 18.2739C23.7678 18.2739 23.83 18.2615 23.888 18.2372C23.9459 18.213 23.9985 18.1774 24.0426 18.1327C24.0867 18.0879 24.1215 18.0349 24.145 17.9766C24.1684 17.9183 24.18 17.8559 24.1791 17.7931V13.5259C24.18 13.4625 24.1681 13.3995 24.1442 13.3408C24.1203 13.282 24.0848 13.2286 24.0399 13.1838C23.995 13.139 23.9416 13.1037 23.8828 13.0799C23.824 13.0561 23.761 13.0443 23.6976 13.0453ZM16.5931 13.5259C16.5303 13.525 16.4679 13.5367 16.4096 13.5601C16.3513 13.5835 16.2982 13.6183 16.2535 13.6624C16.2087 13.7065 16.1732 13.7591 16.1489 13.8171C16.1247 13.875 16.1122 13.9372 16.1122 14.0001C16.1122 14.0629 16.1247 14.1251 16.1489 14.1831C16.1732 14.241 16.2087 14.2936 16.2535 14.3377C16.2982 14.3818 16.3513 14.4166 16.4096 14.44C16.4679 14.4635 16.5303 14.4751 16.5931 14.4742H18.109L16.1912 17.5421C16.1464 17.6139 16.1217 17.6963 16.1195 17.7808C16.1173 17.8654 16.1378 17.9489 16.1788 18.0229C16.2198 18.0969 16.2798 18.1585 16.3527 18.2015C16.4255 18.2444 16.5085 18.2671 16.5931 18.2672H18.9637C19.0265 18.2681 19.0889 18.2565 19.1472 18.233C19.2055 18.2096 19.2586 18.1748 19.3033 18.1307C19.3481 18.0866 19.3836 18.034 19.4079 17.9761C19.4321 17.9181 19.4446 17.8559 19.4446 17.7931C19.4446 17.7302 19.4321 17.668 19.4079 17.6101C19.3836 17.5521 19.3481 17.4995 19.3033 17.4554C19.2586 17.4113 19.2055 17.3765 19.1472 17.3531C19.0889 17.3297 19.0265 17.3181 18.9637 17.3189H17.4478L19.3656 14.251C19.4104 14.1793 19.4351 14.0968 19.4373 14.0123C19.4395 13.9278 19.419 13.8442 19.378 13.7702C19.337 13.6963 19.277 13.6346 19.2041 13.5917C19.1313 13.5487 19.0483 13.526 18.9637 13.5259H16.5931ZM22.2752 14.9418C22.1974 14.9432 22.1212 14.9637 22.0532 15.0015C21.9852 15.0393 21.9276 15.0932 21.8853 15.1585C21.6494 15.029 21.3834 14.9483 21.0973 14.9483C20.1864 14.9483 19.4378 15.6969 19.4378 16.6078C19.4378 17.5186 20.1864 18.2672 21.0973 18.2672C21.3831 18.2672 21.6487 18.1863 21.8844 18.057C21.9403 18.1434 22.0227 18.2093 22.1193 18.2447C22.2159 18.2801 22.3214 18.2832 22.4199 18.2534C22.5184 18.2236 22.6045 18.1626 22.6653 18.0795C22.726 17.9965 22.7581 17.896 22.7567 17.7931V16.6078V15.4224C22.7576 15.359 22.7457 15.296 22.7218 15.2373C22.6979 15.1785 22.6625 15.1251 22.6176 15.0803C22.5727 15.0355 22.5192 15.0002 22.4604 14.9764C22.4016 14.9526 22.3386 14.9408 22.2752 14.9418ZM26.3127 14.9483C25.4018 14.9483 24.6532 15.6969 24.6532 16.6078C24.6532 17.5186 25.4018 18.2672 26.3127 18.2672C27.2235 18.2672 27.9721 17.5186 27.9721 16.6078C27.9721 15.6969 27.2235 14.9483 26.3127 14.9483ZM21.0973 15.8966C21.4957 15.8966 21.8085 16.2094 21.8085 16.6078C21.8085 17.0062 21.4957 17.3189 21.0973 17.3189C20.6989 17.3189 20.3861 17.0062 20.3861 16.6078C20.3861 16.2094 20.6989 15.8966 21.0973 15.8966ZM26.3127 15.8966C26.7111 15.8966 27.0239 16.2094 27.0239 16.6078C27.0239 17.0062 26.7111 17.3189 26.3127 17.3189C25.9143 17.3189 25.6015 17.0062 25.6015 16.6078C25.6015 16.2094 25.9143 15.8966 26.3127 15.8966Z" stroke="white" stroke-width="0.4" mask="url(#path-1-outside-1_61_597)"/>
<path d="M39.9619 22.0211C39.9651 21.9782 39.9703 21.9352 39.9729 21.8917C39.9766 21.8335 39.9698 21.7843 39.9598 21.7382C39.9357 19.8396 39.9022 17.941 39.855 16.0445C39.7911 13.4616 40.1023 10.5118 39.3168 8.02C38.0083 3.8707 33.6766 0.823442 29.4005 0.754269C29.2302 0.751649 29.0599 0.753746 28.8896 0.760558C26.0603 0.367008 23.0592 0.52317 20.2294 0.570857C17.2267 0.621688 14.1464 0.630073 11.1668 1.05559C8.39253 1.10328 5.81847 2.53494 3.94452 4.53937C2.97873 5.57224 2.17853 6.76756 1.59843 8.06192C0.681892 10.1072 0.495336 12.403 0.398913 14.6171C0.29201 17.0674 -0.118302 19.6347 0.0315714 22.0657C0.309833 26.5813 -0.175958 31.8305 2.75392 35.5868C4.24479 37.4985 6.31421 39.0281 8.62992 39.7822C12.4465 41.0247 16.9924 40.2748 20.9442 40.2842C23.2772 40.2895 25.8261 40.5531 28.2167 40.3319C32.4876 40.4949 36.6427 37.4492 38.7205 33.8449C39.7402 32.0758 39.9572 30.1264 39.9934 28.1513C40.0038 27.5691 39.9991 26.9843 39.9939 26.4021C39.9933 24.9421 39.9797 23.4811 39.9619 22.0211ZM4.8642 4.92506C6.90689 3.06212 9.1115 2.50978 11.6405 1.96584C14.4991 1.9695 17.3677 1.73369 20.2289 1.73107C22.6421 1.72897 25.0495 1.95169 27.4626 1.94016C30.6991 1.92444 33.4775 2.15292 35.8493 4.66094C37.6268 6.54013 38.2069 8.69705 38.6471 11.0741C38.5695 14.212 38.9641 17.4495 39.004 20.5701C39.0129 21.255 39.0302 21.952 39.0448 22.6552C37.652 27.6838 36.2297 32.234 31.7608 33.8517C27.8604 35.2635 23.3747 34.8353 19.3527 34.9737C15.0189 35.1225 10.2376 35.9018 6.22774 33.2837C1.89031 30.4513 1.05395 24.6308 1.22269 18.8879C1.22531 18.7957 1.19178 18.7271 1.14462 18.6809C1.22165 16.9857 1.38095 15.2941 1.51824 13.6031C1.80017 10.1523 2.17329 7.37963 4.8642 4.92506ZM37.1573 30.859C36.4215 32.7251 35.3735 34.4318 33.5907 35.4705C30.5371 37.2501 25.4205 36.5825 21.9949 36.6951C16.1398 36.8869 4.84115 38.5015 2.74816 31.3269C3.08983 31.852 3.47027 32.3478 3.89736 32.801C7.91618 37.0662 13.5716 36.4614 18.4236 36.2733C23.2258 36.0873 29.0515 37.02 33.5666 34.4324C34.9652 33.6301 36.1752 32.3792 37.1573 30.859ZM35.3452 36.1397C33.6389 37.7427 31.2158 38.9878 28.8498 39.0795C26.2605 39.1796 23.5565 39.0947 20.9437 39.101C16.1839 39.112 10.1983 40.0311 6.02756 37.2045C4.6069 36.2418 3.29892 35.0177 2.51968 33.4592C2.14237 32.7046 1.9553 31.9196 1.84525 31.1194C3.38015 38.7714 15.1059 38.4459 21.1344 38.3238C25.3985 38.2374 30.3574 38.8107 34.1111 36.3592C36.8664 34.5597 38.1189 31.3054 38.9034 28.2011C38.5805 31.1519 37.6808 33.9445 35.3452 36.1397Z" fill="white"/>
</svg>
