<svg width="30" height="30" viewBox="0 0 30 30" fill="none" xmlns="http://www.w3.org/2000/svg">
<g clip-path="url(#clip0_111_4905)">
<path fill-rule="evenodd" clip-rule="evenodd" d="M13.6692 0.0996094H16.3194C19.9592 0.0996094 22.0862 0.634206 23.9743 1.64653C25.8625 2.65884 27.3525 4.13751 28.3534 6.02568C29.3657 7.91382 29.9003 10.0408 29.9003 13.6806V16.3195C29.9003 19.9592 29.3657 22.0862 28.3534 23.9744C27.3411 25.8625 25.8625 27.3526 23.9743 28.3535C22.0862 29.3659 19.9592 29.9005 16.3194 29.9005H13.6805C10.0408 29.9005 7.91376 29.3659 6.02562 28.3535C4.1375 27.3412 2.64746 25.8625 1.64652 23.9744C0.6342 22.0862 0.0996094 19.9592 0.0996094 16.3195V13.6806C0.0996094 10.0408 0.6342 7.91382 1.64652 6.02568C2.65883 4.13751 4.1375 2.64747 6.02562 1.64653C7.90242 0.634206 10.0408 0.0996094 13.6692 0.0996094Z" fill="#0068FF"/>
<path opacity="0.12" fill-rule="evenodd" clip-rule="evenodd" d="M29.9002 15.8843V16.3198C29.9002 19.9595 29.3656 22.0865 28.3533 23.9747C27.341 25.8628 25.8623 27.3529 23.9741 28.3538C22.086 29.3662 19.959 29.9008 16.3192 29.9008H13.6804C10.7021 29.9008 8.73672 29.5428 7.08624 28.8581L4.36523 26.0561L29.9002 15.8843Z" fill="#001A33"/>
<path fill-rule="evenodd" clip-rule="evenodd" d="M4.6674 26.1535C6.06114 26.3076 7.80366 25.9102 9.04092 25.3095C14.4135 28.2791 22.8118 28.1372 27.8954 24.8839C28.0925 24.5882 28.2767 24.2806 28.4477 23.9618C29.4637 22.0667 30.0002 19.932 30.0002 16.279V13.6305C30.0002 9.9774 29.4637 7.84266 28.4477 5.94764C27.4431 4.05262 25.9477 2.56856 24.0526 1.55255C22.1576 0.536543 20.0228 0 16.3698 0H13.7099C10.5986 0 8.57892 0.391652 6.88194 1.13936C6.78918 1.22242 6.69816 1.30691 6.60906 1.39281C1.6304 6.19218 1.25195 16.5956 5.47367 22.2469C5.47838 22.2553 5.4836 22.2637 5.48933 22.2722C6.14004 23.2311 5.51216 24.9092 4.53041 25.891C4.37059 26.0394 4.42766 26.1307 4.6674 26.1535Z" fill="white"/>
<path d="M12.338 10.2H6.50299V11.4511H10.5522L6.55981 16.399C6.43471 16.581 6.34375 16.7516 6.34375 17.1383V17.4568H11.8489C12.1219 17.4568 12.3494 17.2293 12.3494 16.9563V16.2852H8.09539L11.8489 11.5762C11.9057 11.508 12.0081 11.3829 12.0536 11.326L12.0764 11.2919C12.2925 10.9734 12.338 10.7004 12.338 10.3706V10.2Z" fill="#0068FF"/>
<path d="M19.7651 17.4568H20.5954V10.2H19.3442V17.0359C19.3442 17.2635 19.5262 17.4568 19.7651 17.4568Z" fill="#0068FF"/>
<path d="M15.4886 11.8154C13.9189 11.8154 12.645 13.0893 12.645 14.659C12.645 16.2287 13.9189 17.5026 15.4886 17.5026C17.0583 17.5026 18.3322 16.2287 18.3322 14.659C18.3436 13.0893 17.0697 11.8154 15.4886 11.8154ZM15.4886 16.331C14.5673 16.331 13.8166 15.5803 13.8166 14.659C13.8166 13.7377 14.5673 12.987 15.4886 12.987C16.4099 12.987 17.1606 13.7377 17.1606 14.659C17.1606 15.5803 16.4213 16.331 15.4886 16.331Z" fill="#0068FF"/>
<path d="M24.2921 11.7698C22.711 11.7698 21.4258 13.0551 21.4258 14.6361C21.4258 16.2172 22.711 17.5025 24.2921 17.5025C25.8731 17.5025 27.1584 16.2172 27.1584 14.6361C27.1584 13.0551 25.8731 11.7698 24.2921 11.7698ZM24.2921 16.3309C23.3594 16.3309 22.6087 15.5802 22.6087 14.6475C22.6087 13.7148 23.3594 12.9641 24.2921 12.9641C25.2248 12.9641 25.9755 13.7148 25.9755 14.6475C25.9755 15.5802 25.2248 16.3309 24.2921 16.3309Z" fill="#0068FF"/>
<path d="M17.6738 17.4566H18.3449V11.9741H17.1733V16.9675C17.1733 17.2291 17.4008 17.4566 17.6738 17.4566Z" fill="#0068FF"/>
</g>
<defs>
<clipPath id="clip0_111_4905">
<rect width="30" height="30" fill="white"/>
</clipPath>
</defs>
</svg>
